<svg xmlns="http://www.w3.org/2000/svg">
  <symbol id="js-logo" viewBox="0 0 630 630">
    <rect width="630" height="630" fill="#f7df1e"/>
    <path d="m423.2 492.19c12.69 20.72 29.2 35.95 58.4 35.95 24.53 0 40.2-12.26 40.2-29.2 0-20.3-16.1-27.49-43.1-39.3l-14.8-6.35c-42.72-18.2-71.1-41-71.1-89.2 0-44.4 33.83-78.2 86.7-78.2 37.64 0 64.7 13.1 84.2 47.4l-46.1 29.6c-10.15-18.2-21.1-25.37-38.1-25.37-17.34 0-28.33 11-28.33 25.37 0 17.76 11 24.95 36.4 35.95l14.8 6.34c50.3 21.57 78.7 43.56 78.7 93 0 53.3-41.87 82.5-98.1 82.5-54.98 0-90.5-26.2-107.88-60.54zm-209.13 5.13c9.3 16.5 17.76 30.45 38.1 30.45 19.45 0 31.72-7.61 31.72-37.2v-201.3h59.2v202.1c0 61.3-35.94 89.2-88.4 89.2-47.4 0-74.85-24.53-88.81-54.075z"/>
  </symbol>

  <symbol id="react-logo" viewBox="-11.5 -10.23174 23 20.46348">
    <circle cx="0" cy="0" r="2.05" fill="#61dafb"/>
    <g stroke="#61dafb" stroke-width="1" fill="none">
      <ellipse rx="11" ry="4.2"/>
      <ellipse rx="11" ry="4.2" transform="rotate(60)"/>
      <ellipse rx="11" ry="4.2" transform="rotate(120)"/>
    </g>
  </symbol>

  <symbol id="redux-logo" viewBox="0 0 256 244">
    <path d="M177.381 169.733c9.447-.978 16.614-9.122 16.288-18.896-.325-9.773-8.47-17.592-18.243-17.592h-.651c-10.1.326-17.918 8.796-17.592 18.895.326 4.887 2.28 9.122 5.212 12.054-11.076 21.828-28.016 37.791-53.426 51.148-17.266 9.122-35.183 12.38-53.1 10.1-14.66-1.955-26.062-8.47-33.23-19.222-10.424-15.963-11.401-33.23-2.605-50.496 6.19-12.38 15.962-21.502 22.152-26.063-1.303-4.235-3.258-11.402-4.235-16.614-47.237 34.207-42.35 80.468-28.016 102.295 10.75 16.29 32.577 26.389 56.684 26.389 6.515 0 13.03-.652 19.546-2.28 41.699-8.145 73.299-32.905 91.216-69.718zm57.336-40.397c-24.759-28.995-61.245-44.958-102.944-44.958h-5.212c-2.932-5.864-9.122-9.774-15.963-9.774h-.652C99.848 74.93 92.03 83.4 92.355 93.5c.326 9.773 8.47 17.592 18.243 17.592h.651c7.167-.326 13.357-4.887 15.963-11.077h5.864c24.759 0 48.214 7.167 69.39 21.176 16.288 10.751 28.016 24.76 34.531 41.7 5.538 13.683 5.212 27.04-.652 38.443-9.121 17.266-24.432 26.714-44.63 26.714-13.031 0-25.41-3.91-31.926-6.842-3.583 3.258-10.099 8.47-14.66 11.729 14.009 6.515 28.343 10.099 42.025 10.099 31.274 0 54.404-17.267 63.2-34.533 9.447-18.896 8.795-51.474-15.637-79.165zM69.225 175.27c.326 9.774 8.47 17.592 18.243 17.592h.652c10.099-.325 17.917-8.796 17.591-18.895-.325-9.774-8.47-17.592-18.243-17.592h-.651c-.652 0-1.63 0-2.28.325-13.357-22.153-18.895-46.26-16.94-72.323 1.302-19.547 7.818-36.488 19.22-50.497 9.447-12.054 27.69-17.918 40.07-18.243 34.531-.652 49.19 42.351 50.168 59.618 4.235.977 11.402 3.258 16.289 4.887C189.434 27.366 156.857 0 125.584 0c-29.32 0-56.359 21.176-67.11 52.451-14.985 41.7-5.212 81.771 13.031 113.372-1.628 2.28-2.606 5.864-2.28 9.448z" fill="#764ABC"/>
  </symbol>

  <symbol id="ts-logo" viewBox="0 0 512 512">
    <rect fill="#3178c6" height="512" rx="50" width="512"/><rect fill="#3178c6" height="512" rx="50" width="512"/><path clip-rule="evenodd" d="m316.939 407.424v50.061c8.138 4.172 17.763 7.3 28.875 9.386s22.823 3.129 35.135 3.129c11.999 0 23.397-1.147 34.196-3.442 10.799-2.294 20.268-6.075 28.406-11.342 8.138-5.266 14.581-12.15 19.328-20.65s7.121-19.007 7.121-31.522c0-9.074-1.356-17.026-4.069-23.857s-6.625-12.906-11.738-18.225c-5.112-5.319-11.242-10.091-18.389-14.315s-15.207-8.213-24.18-11.967c-6.573-2.712-12.468-5.345-17.685-7.9-5.217-2.556-9.651-5.163-13.303-7.822-3.652-2.66-6.469-5.476-8.451-8.448-1.982-2.973-2.974-6.336-2.974-10.091 0-3.441.887-6.544 2.661-9.308s4.278-5.136 7.512-7.118c3.235-1.981 7.199-3.52 11.894-4.615 4.696-1.095 9.912-1.642 15.651-1.642 4.173 0 8.581.313 13.224.938 4.643.626 9.312 1.591 14.008 2.894 4.695 1.304 9.259 2.947 13.694 4.928 4.434 1.982 8.529 4.276 12.285 6.884v-46.776c-7.616-2.92-15.937-5.084-24.962-6.492s-19.381-2.112-31.066-2.112c-11.895 0-23.163 1.278-33.805 3.833s-20.006 6.544-28.093 11.967c-8.086 5.424-14.476 12.333-19.171 20.729-4.695 8.395-7.043 18.433-7.043 30.114 0 14.914 4.304 27.638 12.912 38.172 8.607 10.533 21.675 19.45 39.204 26.751 6.886 2.816 13.303 5.579 19.25 8.291s11.086 5.528 15.415 8.448c4.33 2.92 7.747 6.101 10.252 9.543 2.504 3.441 3.756 7.352 3.756 11.733 0 3.233-.783 6.231-2.348 8.995s-3.939 5.162-7.121 7.196-7.147 3.624-11.894 4.771c-4.748 1.148-10.303 1.721-16.668 1.721-10.851 0-21.597-1.903-32.24-5.71-10.642-3.806-20.502-9.516-29.579-17.13zm-84.159-123.342h64.22v-41.082h-179v41.082h63.906v182.918h50.874z" fill="#fff" fill-rule="evenodd"/>
  </symbol>

  <symbol id="jest-logo" viewBox="0 0 256 283">
    <g>
      <path d="M239.972557,139.203 C239.972557,124.669 228.190557,112.887 213.656557,112.887 C212.721557,112.887 211.799557,112.937 210.890557,113.032 L247.035557,6.427 L93.431557,6.427 L129.525557,112.94 C128.996557,112.908 128.464557,112.887 127.926557,112.887 C113.392557,112.887 101.610557,124.669 101.610557,139.203 C101.610557,150.951 109.309557,160.897 119.936557,164.281 C114.323557,174.003 107.261557,182.759 99.243557,190.323 C88.340557,200.609 75.862557,208.408 62.367557,213.214 C46.299557,204.96 38.711557,186.602 45.558557,170.507 C46.331557,168.69 47.120557,166.847 47.875557,165.013 C59.515557,162.296 68.189557,151.86 68.189557,139.392 C68.189557,124.858 56.407557,113.076 41.873557,113.076 C27.338557,113.076 15.556557,124.858 15.556557,139.392 C15.556557,148.305 19.991557,156.176 26.769557,160.937 C20.255557,175.768 10.681557,191.288 7.69855701,209.276 C4.12355701,230.835 7.68755701,253.719 26.332557,266.642 C69.756557,296.738 116.892557,247.985 166.591557,235.729 C184.602557,231.287 204.373557,232.003 220.242557,222.812 C232.159557,215.91 240.015557,204.472 242.245557,191.63 C244.447557,178.944 241.236557,166.313 233.852557,156.071 C237.671557,151.503 239.972557,145.623 239.972557,139.203 L239.972557,139.203 Z M154.240557,139.296 C154.240557,139.265 154.243557,139.234 154.243557,139.203 C154.243557,129.659 149.161557,121.301 141.557557,116.688 L170.285557,58.597 L199.063557,117.304 C191.996557,122.022 187.339557,130.068 187.339557,139.203 C187.339557,139.395 187.350557,139.584 187.354557,139.775 L154.240557,139.296 L154.240557,139.296 Z" fill="#C63D14"></path>
      <path d="M246.399036,139.203 C246.399036,123.218 234.882036,109.88 219.711036,107.031 L256.000036,0 L84.4660355,0 L120.810036,107.248 C106.167036,110.507 95.1830355,123.593 95.1830355,139.203 C95.1830355,150.926 101.378036,161.223 110.663036,167.009 C106.197036,173.662 100.901036,179.923 94.8320355,185.648 C85.2080355,194.728 74.4850355,201.614 62.9250355,206.144 C51.2820355,198.83 46.3600355,185.038 51.4720355,173.022 L51.8720355,172.082 C52.1220355,171.494 52.3730355,170.904 52.6230355,170.314 C65.4110355,165.855 74.6160355,153.682 74.6160355,139.392 C74.6160355,121.337 59.9270355,106.649 41.8720355,106.649 C23.8170355,106.649 9.12903553,121.337 9.12903553,139.392 C9.12903553,148.505 12.8740355,156.757 18.9020355,162.699 C17.8090355,165.029 16.6600355,167.397 15.4790355,169.823 C9.96703553,181.144 3.72003553,193.976 1.35703553,208.225 C-3.33596447,236.524 4.23303553,259.146 22.6700355,271.924 C33.8580355,279.678 45.2190355,282.728 56.6520355,282.727 C78.1810355,282.726 99.9580355,271.911 121.258036,261.331 C136.599036,253.712 152.461036,245.833 168.130036,241.969 C173.960036,240.531 179.959036,239.666 186.310036,238.75 C198.904036,236.933 211.928036,235.055 223.464036,228.374 C236.835036,220.629 245.989036,207.637 248.577036,192.73 C250.799036,179.933 248.124036,167.117 241.602036,156.247 C244.643036,151.279 246.399036,145.443 246.399036,139.203 L246.399036,139.203 Z M233.545036,139.203 C233.545036,150.17 224.623036,159.093 213.655036,159.093 C202.689036,159.093 193.766036,150.17 193.766036,139.203 C193.766036,128.236 202.689036,119.314 213.655036,119.314 C224.623036,119.314 233.545036,128.236 233.545036,139.203 L233.545036,139.203 Z M238.069036,12.854 L206.024036,107.367 C204.635036,107.7 203.281036,108.12 201.966036,108.625 L170.310036,44.047 L138.562036,108.243 C137.190036,107.77 135.778036,107.381 134.330036,107.093 L102.395036,12.854 L238.069036,12.854 L238.069036,12.854 Z M127.926036,119.314 C138.893036,119.314 147.815036,128.236 147.815036,139.203 C147.815036,150.17 138.893036,159.093 127.926036,159.093 C116.960036,159.093 108.037036,150.17 108.037036,139.203 C108.037036,128.236 116.960036,119.314 127.926036,119.314 L127.926036,119.314 Z M41.8720355,119.503 C52.8400355,119.503 61.7620355,128.425 61.7620355,139.392 C61.7620355,150.359 52.8400355,159.282 41.8720355,159.282 C30.9060355,159.282 21.9830355,150.359 21.9830355,139.392 C21.9830355,128.425 30.9060355,119.503 41.8720355,119.503 L41.8720355,119.503 Z M235.912036,190.531 C233.977036,201.679 227.091036,211.418 217.021036,217.25 C207.634036,222.687 196.385036,224.31 184.475036,226.027 C178.095036,226.947 171.497036,227.899 165.052036,229.489 C148.010036,233.691 131.503036,241.89 115.540036,249.819 C83.5950355,265.686 56.0060355,279.388 29.9930355,261.359 C10.9380355,248.153 11.8180355,223.718 14.0380355,210.328 C16.0950355,197.923 21.6570355,186.498 27.0360355,175.449 C27.9670355,173.537 28.8710355,171.664 29.7580355,169.803 C32.4260355,170.87 35.2630355,171.597 38.2200355,171.927 C32.7450355,189.998 41.3560355,209.646 59.4290355,218.931 L61.9020355,220.202 L64.5220355,219.269 C78.8100355,214.181 91.9750355,206.015 103.653036,194.998 C111.202036,187.877 117.689036,179.998 123.023036,171.579 C124.623036,171.82 126.260036,171.947 127.926036,171.947 C145.981036,171.947 160.670036,157.259 160.670036,139.203 C160.670036,129.493 156.417036,120.761 149.681036,114.759 L170.259036,73.147 L191.046036,115.552 C184.809036,121.518 180.912036,129.911 180.912036,139.203 C180.912036,157.259 195.600036,171.947 213.655036,171.947 C220.592036,171.947 227.027036,169.773 232.327036,166.079 C236.007036,173.612 237.378036,182.088 235.912036,190.531 L235.912036,190.531 Z" fill="#FFFFFF"></path>
    </g>
  </symbol>

  <symbol id="git-logo" viewBox="0 0 100 100">
    <path fill="#F05133" d="M92.71 44.408 52.591 4.291c-2.31-2.311-6.057-2.311-8.369 0l-8.33 8.332L46.459 23.19c2.456-.83 5.272-.273 7.229 1.685 1.969 1.97 2.521 4.81 1.67 7.275l10.186 10.185c2.465-.85 5.307-.3 7.275 1.671 2.75 2.75 2.75 7.206 0 9.958-2.752 2.751-7.208 2.751-9.961 0-2.068-2.07-2.58-5.11-1.531-7.658l-9.5-9.499v24.997c.67.332 1.303.774 1.861 1.332 2.75 2.75 2.75 7.206 0 9.959-2.75 2.749-7.209 2.749-9.957 0-2.75-2.754-2.75-7.21 0-9.959.68-.679 1.467-1.193 2.307-1.537v-25.23c-.84-.344-1.625-.853-2.307-1.537-2.083-2.082-2.584-5.14-1.516-7.698L31.798 16.715 4.288 44.222c-2.311 2.313-2.311 6.06 0 8.371l40.121 40.118c2.31 2.311 6.056 2.311 8.369 0L92.71 52.779c2.311-2.311 2.311-6.06 0-8.371z"/>
  </symbol>

  <symbol id="webpack-logo" viewBox="0 0 1200 1200">
    <path fill="#fff" d="M600 0l530.3 300v600L600 1200 69.7 900V300z"/><path fill="#8ed6fb" d="M1035.6 879.3l-418.1 236.5V931.6L878 788.3l157.6 91zm28.6-25.9V358.8l-153 88.3V765l153 88.4zm-901.5 25.9l418.1 236.5V931.6L320.3 788.3l-157.6 91zm-28.6-25.9V358.8l153 88.3V765l-153 88.4zM152 326.8L580.8 84.2v178.1L306.1 413.4l-2.1 1.2-152-87.8zm894.3 0L617.5 84.2v178.1l274.7 151.1 2.1 1.2 152-87.8z"/><path fill="#1c78c0" d="m580.8 889.7l-257-141.3v-280l257 148.4v272.9m36.7 0l257-141.3v-280l-257 148.4v272.9m-276.3-453.7l258-141.9 258 141.9-258 149-258-149"/>
  </symbol>
  
  <symbol id="html5-logo" viewBox="0 0 512 512">
    <path d="M108.4 0h23v22.8h21.2V0h23v69h-23V46h-21v23h-23.2M206 23h-20.3V0h63.7v23H229v46h-23M259.5 0h24.1l14.8 24.3L313.2 0h24.1v69h-23V34.8l-16.1 24.8l-16.1-24.8v34.2h-22.6M348.7 0h23v46.2h32.6V69h-55.6"/>
    <path fill="#e44d26" d="M107.6 471l-33-370.4h362.8l-33 370.2L255.7 512"/>
    <path fill="#f16529" d="M256 480.5V131H404.3L376 447"/>
    <path fill="#ebebeb" d="M142 176.3h114v45.4h-64.2l4.2 46.5h60v45.3H154.4M156.4 336.3H202l3.2 36.3 50.8 13.6v47.4l-93.2-26"/>
    <path fill="#fff" d="M369.6 176.3H255.8v45.4h109.6M361.3 268.2H255.8v45.4h56l-5.3 59-50.7 13.6v47.2l93-25.8"/>
  </symbol>

  <symbol id="css3-logo" viewBox="0 0 362.73401 511.99998">
    <path style="fill:#264de4" d="m437.37 100.62-33.05 370.2L255.78 512l-148.14-41.12-33.01-370.26z" transform="translate(-74.63)"/><path style="fill:#2965f1" d="m376.03 447.25 28.24-316.36H256v349.63z" transform="translate(-74.63)"/><path style="fill:#ebebeb" d="m150.31 268.22 4.07 45.41H256v-45.41zM256 176.31H142.13l4.13 45.41H256zM256 433.4v-47.25l-.2.06-50.57-13.66-3.24-36.22h-45.58l6.36 71.3 93.02 25.83z" transform="translate(-74.63)"/><path d="M85.37 0h55v23h-32v23h32v23h-55zM151.37 0h55v20h-32v4h32v46h-55V49h32v-4h-32zM217.37 0h55v20h-32v4h32v46h-55V49h32v-4h-32z"/><path style="fill:#fff" d="m311.76 313.63-5.27 58.89-50.65 13.67v47.25l93.1-25.81.68-7.67 10.67-119.55 1.11-12.19 8.2-91.91H255.84v45.41h63.99l-4.13 46.5h-59.86v45.41z" transform="translate(-74.63)"/>
  </symbol>

  <symbol id="pug-logo" viewBox="0 0 64 64">
    <g transform="matrix(.499516 0 0 .499516 -.093926 -.823678)"><path d="M107.4 50.9c-.2-4.4.4-8.3-1.6-11.6-4.8-8.2-16.8-13-40.8-13v.7h-.5.5v-.7c-24 0-36.6 4.8-41.4 13.1-1.9 3.4-1.7 7.2-2 11.6-.2 3.5-1.8 7.2-1.1 11.2.8 5.2 1.1 10.4 1.9 15.2.6 3.9 6 7.2 6.5 10.9 1.4 10.2 12 14.9 36 14.9v.8h-.5.6v-.8c24 0 34.2-4.7 35.5-14.9.5-3.8 5.5-7 6.1-10.9.8-4.8 1.1-10 1.9-15.2.7-4-.9-7.8-1.1-11.3z" fill="#efcca3"/><g fill="#ccac8d"><path d="M64.6 54.5c4.3.1 7.3 2.8 10.1 5.3 3.3 2.9 8.9 4.9 11.2 7.4s5.3 5 6.4 8.9 1.4 8.9 1.4 10.2.7 1 2.7 0c4.7-2.3 9.9-8.5 9.9-8.5-.6 3.9-5.7 7.4-6.2 11.1C98.9 99.1 89 104 64.5 104h-.1.6"/><path d="M80.4 46.7c.9 3.1 4.1 13.6-2.1 10.1 0 0 2.6 1.5 4.2 7.2 1.7 5.7 5.8 6.4 5.8 6.4s6.7 1.3 11.7-3c4.2-3.6 4.9-10 3.1-14.9-1.8-4.8-5-6.3-9.7-7.3-4.7-1.1-14.1-2-13 1.5z"/></g><circle cx="92.3" cy="58.1" r="8.8"/><circle cx="90" cy="54.2" r="2.3" fill="#fff"/><path d="M78.9 57.7s7.9 5.4 12.2 10.7 4.2 6.3 4.2 6.3l-3.1 1.4s-4.4-8.3-9.8-11.4c-5.5-3.1-6.1-5.7-6.1-5.7z" fill="#efcca3"/><path d="M64.9 54.5c-4.3.1-7.5 2.8-10.4 5.3-3.3 2.9-9.1 4.9-11.4 7.4s-5.4 5-6.5 8.9-1.5 8.9-1.5 10.2.2 1.4-2.7 0c-4.7-2.2-9.9-8.5-9.9-8.5.6 3.9 5.7 7.4 6.2 11.1C30.1 99.1 40 104 64.5 104h.5" fill="#ccac8d"/><path d="M88.1 71.4C83.3 65.5 75.6 60 64.9 60h-.1c-10.7 0-18.4 5.5-23.2 11.4-5 6.1-4.6 8.5-4.6 14.3 0 21 7.4 15 12.3 17.6 5 2.5 10.2 1.7 15.5 1.7h.1c5.4 0 10.5.7 15.5-1.8 4.9-2.5 12.3 3.7 12.3-17.3.1-5.8.4-8.4-4.6-14.5z" fill="#56332b"/><g fill="#442823"><path d="M64.4 65.2s-.7 9.7-2.1 11.6l2.6-.6z"/><path d="M65.1 65.2s.7 9.7 2.1 11.6l-2.6-.6z"/></g><path d="M56.7 62.9c-1-2.3 2.6-6 8.3-6.1 5.7 0 9.3 3.7 8.3 6.1S68.7 66 65 66.1c-3.6-.1-7.3-.8-8.3-3.2z" fill="#56332b"/><path d="M65 65.2c0-.4 3.4-.5 5.2-1.7 0 0-3.7 1.2-4.5.7-.8-.4-1-1.6-1-1.6s-.3 1.2-.9 1.6c-.7.4-4.9-.7-4.9-.7l5.6 1.7c0 .3-.1 1.3-.1 2l.4 9.2c.6.9.4-6.7.4-9.2l-.2-2z"/><path d="M65.2 78.6c1.7 0 4.7 1.2 7.4 3.1-2.6-2.9-5.7-4.9-7.4-4.9-1.8 0-5.6 2.2-8.3 5.4 2.8-2.2 6.4-3.6 8.3-3.6z" fill="#7f4a41" stroke="#4d4d4d" stroke-width="4.159" stroke-miterlimit="10"/><g fill="#442823"><path d="M64.5 96.3c-3.8 0-7.5-1.2-10.9-2.1-.7-.2-1.4.3-2.1.1-6.3-2-11.4-5.4-14.5-9.7v1c0 21 7.4 15.1 12.3 17.6 5 2.5 10.2 1.7 15.5 1.7h.1c5.4 0 10.5.7 15.5-1.8 4.9-2.5 12.3 3.6 12.3-17.4 0-.8 0-1.6.1-2.3-2.9 4.7-8.2 8.4-14.8 10.6-.6.2-2-.3-2.6-.2-3.6 1.2-6.8 2.5-10.9 2.5z"/><path d="M55 85s-2.5 7.5-.8 10.8l-2.3-1s1.7-7.6 3.1-9.8zm19.8 0s2.5 7.5.8 10.8l2.3-1s-1.8-7.6-3.1-9.8z"/></g><path d="M48.6 46.7c-.9 3.1-4.1 13.6 2.1 10.1 0 0-2.6 1.5-4.2 7.2s-5.8 6.4-5.8 6.4-6.7 1.3-11.7-3c-4.2-3.6-4.9-10-3.1-14.9s5-6.3 9.7-7.3c4.7-1.1 14-2 13 1.5z" fill="#ccac8d"/><path d="M64.9 76.8c2.7 0 11.1 5.8 11.2 12.9v-.4c0-7.4-6.8-13.3-11.2-13.3s-11.2 6-11.2 13.3v.4c.1-7.1 8.5-12.9 11.2-12.9z"/><g fill="#331712"><ellipse transform="matrix(.9683 -.2497 .2497 .9683 -13.2339 18.6065)" cx="66.7" cy="61.5" rx=".8" ry="1.5"/><ellipse transform="matrix(.9551 .2963 -.2963 .9551 21.0115 -15.7209)" cx="62.4" cy="61.5" rx=".8" ry="1.5"/></g><circle cx="37.2" cy="58.1" r="8.8"/><circle cx="39.5" cy="54.2" r="2.3" fill="#fff"/><path d="M67.5 58.2c0-.1-2.3 1-2.9 1.1-.6-.1-2.9-1.2-2.9-1.1h5.8z" fill="#7f4a41" stroke="#4d4d4d" stroke-width="4.159" stroke-miterlimit="10"/><path d="M50 57.7s-7.9 5.4-12.2 10.7-4.2 6.3-4.2 6.3l3.1 1.4s4.4-8.3 9.8-11.4 6.1-5.7 6.1-5.7z" fill="#efcca3"/><g fill="#ccac8d"><path d="M32.7 41.7S30 49.1 24 52.2c0 0 9.4-1.1 8.7-10.5zm63.1 0s2.7 7.4 8.7 10.5c0 0-9.4-1.1-8.7-10.5zM78.7 55.5s-5.9-6.2-13.8-6.4c-.1 0 .2 0 .1 0s.1 0 .1 0c-8 .2-13.8 6.4-13.8 6.4 6.9-4.8 12.8-4.7 13.8-4.7-.1 0 6.7-.1 13.6 4.7zm-6.9-13s-3-4.2-7-4.3h.2c-3 .1-6.9 4.3-6.9 4.3 3.4-3.3 6.9-3.2 6.9-3.2s3.3-.1 6.8 3.2zM37.2 73.2s-4.7 2.3-8.1.9H29c-3-1.7-4.5-6.8-4.5-6.8s3 9 12.7 5.9zm54.8 0s4.7 2.3 8.1.9c4-1.7 4.6-6.8 4.6-6.8s-3 9-12.7 5.9zm-49.4-32c2.6-.5 6.9-.6 10.3.5 4.3 1.5.8 7 1.7 7.3s2.1-3.8 10.1-3.4c8.1.4 9 4 10.1 3.4s-1.1-10 11-7.8c0 0-12.7-3.4-12.1 5.8 0 0-7.3-5.6-17.5-.6.1 0 2.7-8.6-13.6-5.2zm44.3 0c.2 0 .3.1.4.1s-.1-.1-.4-.1z"/><path d="M86.9 41.2z"/><path d="M39.1 28.9S28.3 42.5 26.7 47.7c-1.6 5.3-2.8 27-4.2 30.1l-5-21.4 9.2-22.3zm50.8 0s10.8 13.6 12.4 18.8c1.6 5.3 2.8 27 4.2 30.1l5-21.4-9.2-22.3z"/></g><path d="M89.4 28.9s11.6 9.7 15 20.9 2 24.8 4.6 26.5c3.7 2.4 7.9-11.9 9.3-13.4 2.2-2.4 9.5-8.5 10-9.6s-14.8-17.8-21.5-21.1c-8.1-3.8-18.1-4.1-17.4-3.3z" fill="#56332b"/><path d="M99.3 34.9s13.7 17.5 13.5 39.3l5.5-11.2c-.1 0-4.9-14.3-19-28.1z" fill="#442823"/><path d="M39.1 28.9s-11.6 9.7-15 20.9-2 24.8-4.6 26.5c-3.7 2.4-7.9-11.9-9.3-13.4C8 60.5.7 54.4.2 53.3S15 35.5 21.7 32.2c8.1-3.8 18.1-4.1 17.4-3.3z" fill="#56332b"/><path d="M29.2 34.9S15.5 52.4 15.7 74.2L10.3 63s4.8-14.3 18.9-28.1z" fill="#442823"/><path d="M21.8 74.6s1 5.4 2.6 7.1.5-1.3.5-1.3-1.7-.9-1.4-7.8-1.7 2-1.7 2zm85.3 0s-1 5.4-2.6 7.1-.5-1.3-.5-1.3 1.7-.9 1.4-7.8 1.7 2 1.7 2z" fill="#ccac8d"/><g fill="#442823"><circle cx="54.5" cy="70.5" r=".8"/><circle cx="49.9" cy="75.3" r=".8"/><circle cx="48.4" cy="70.5" r=".8"/><circle cx="74" cy="70.5" r=".8"/><circle cx="78.6" cy="75.3" r=".8"/><circle cx="80.1" cy="70.5" r=".8"/></g></g>
  </symbol>

  <symbol id="sass-logo" viewBox="0 0 547.8 410.6">
    <path fill="#CD6799" d="M471.4,236c-19.1,0.1-35.7,4.7-49.6,11.5c-5.1-10.1-10.2-19.1-11.1-25.7c-1-7.7-2.2-12.4-1-21.6
      c1.2-9.2,6.6-22.3,6.5-23.3s-1.2-5.7-12.2-5.8c-11-0.1-20.5,2.1-21.6,5c-1.1,2.9-3.2,9.5-4.6,16.3c-1.9,10-22,45.7-33.5,64.4
      c-3.7-7.3-6.9-13.7-7.6-18.8c-1-7.7-2.2-12.4-1-21.6c1.2-9.2,6.6-22.3,6.5-23.3c-0.1-1-1.2-5.7-12.2-5.8c-11-0.1-20.5,2.1-21.6,5
      c-1.1,2.9-2.3,9.7-4.6,16.3c-2.3,6.6-29,66.2-36,81.6c-3.6,7.9-6.7,14.2-8.9,18.5c0,0,0,0,0,0s-0.1,0.3-0.4,0.8
      c-1.9,3.7-3,5.7-3,5.7s0,0,0,0.1c-1.5,2.7-3.1,5.2-3.9,5.2c-0.6,0-1.7-7.2,0.2-17c4-20.7,13.5-52.9,13.4-54c0-0.6,1.8-6.2-6.2-9.1
      c-7.8-2.9-10.6,1.9-11.3,1.9c-0.7,0-1.2,1.7-1.2,1.7s8.7-36.2-16.6-36.2c-15.8,0-37.6,17.3-48.4,32.9c-6.8,3.7-21.3,11.6-36.8,20.1
      c-5.9,3.3-12,6.6-17.7,9.7c-0.4-0.4-0.8-0.9-1.2-1.3c-30.6-32.7-87.2-55.8-84.8-99.7c0.9-16,6.4-58,108.7-109
      C233.9,19,300.9,30.5,312.5,56c16.6,36.4-35.9,104-122.9,113.8c-33.2,3.7-50.6-9.1-55-13.9c-4.6-5-5.3-5.3-7-4.3c-2.8,1.5-1,6,0,8.6
      c2.6,6.8,13.3,18.8,31.4,24.7c16,5.2,54.9,8.1,102-10.1c52.7-20.4,93.9-77.1,81.8-124.6C330.7,2,250.7-13.9,175,13
      C130,29,81.2,54.2,46.1,87c-41.7,39-48.3,72.9-45.6,87.1c9.7,50.4,79.2,83.2,107,107.5c-1.4,0.8-2.7,1.5-3.8,2.1
      c-13.9,6.9-66.9,34.6-80.1,63.9c-15,33.2,2.4,57,13.9,60.2c35.7,9.9,72.4-7.9,92.1-37.3c19.7-29.4,17.3-67.6,8.2-85.1
      c-0.1-0.2-0.2-0.4-0.4-0.6c3.6-2.1,7.3-4.3,10.9-6.4c7.1-4.2,14.1-8.1,20.1-11.3c-3.4,9.3-5.9,20.4-7.1,36.4
      c-1.5,18.8,6.2,43.2,16.3,52.8c4.5,4.2,9.8,4.3,13.2,4.3c11.8,0,17.1-9.8,23-21.4c7.2-14.2,13.7-30.7,13.7-30.7s-8.1,44.6,13.9,44.6
      c8,0,16.1-10.4,19.7-15.7c0,0.1,0,0.1,0,0.1s0.2-0.3,0.6-1c0.8-1.3,1.3-2.1,1.3-2.1s0-0.1,0-0.2c3.2-5.6,10.4-18.3,21.1-39.4
      c13.8-27.2,27.1-61.2,27.1-61.2s1.2,8.3,5.3,22.1c2.4,8.1,7.4,17,11.4,25.6c-3.2,4.5-5.2,7-5.2,7s0,0,0.1,0.1
      c-2.6,3.4-5.4,7.1-8.5,10.7c-10.9,13-23.9,27.9-25.7,32.2c-2.1,5.1-1.6,8.8,2.4,11.8c2.9,2.2,8.1,2.5,13.4,2.2
      c9.8-0.7,16.7-3.1,20.1-4.6c5.3-1.9,11.5-4.8,17.3-9.1c10.7-7.9,17.2-19.2,16.6-34.1c-0.3-8.2-3-16.4-6.3-24.1
      c1-1.4,1.9-2.8,2.9-4.2c16.9-24.7,30-51.8,30-51.8s1.2,8.3,5.3,22.1c2,7,6.1,14.6,9.7,22c-15.9,12.9-25.7,27.9-29.2,37.7
      c-6.3,18.2-1.4,26.4,7.9,28.3c4.2,0.9,10.2-1.1,14.6-3c5.6-1.8,12.2-4.9,18.5-9.5c10.7-7.9,21-18.9,20.4-33.8
      c-0.3-6.8-2.1-13.5-4.6-20c13.5-5.6,30.9-8.7,53.1-6.1c47.6,5.6,57,35.3,55.2,47.8c-1.8,12.5-11.8,19.3-15.1,21.4
      c-3.3,2.1-4.4,2.8-4.1,4.3c0.4,2.2,2,2.1,4.8,1.7c3.9-0.7,25-10.1,25.9-33.1C548.9,267.8,520.9,235.7,471.4,236z M104.2,359.8
      C88.4,377,66.4,383.5,56.9,378c-10.2-5.9-6.2-31.3,13.2-49.5c11.8-11.1,27-21.4,37.1-27.7c2.3-1.4,5.7-3.4,9.8-5.9
      c0.7-0.4,1.1-0.6,1.1-0.6l0,0c0.8-0.5,1.6-1,2.4-1.5C127.6,318.8,120.8,341.7,104.2,359.8z M219.2,281.6c-5.5,13.4-17,47.7-24,45.8
      c-6-1.6-9.7-27.6-1.2-53.3c4.3-12.9,13.4-28.3,18.7-34.3c8.6-9.6,18.1-12.8,20.4-8.9C236,236,222.6,273.2,219.2,281.6z M314.1,327
      c-2.3,1.2-4.5,2-5.5,1.4c-0.7-0.4,1-2,1-2s11.9-12.8,16.6-18.6c2.7-3.4,5.9-7.4,9.3-11.9c0,0.4,0,0.9,0,1.3
      C335.5,312.5,320.7,322.8,314.1,327z M387.3,310.3c-1.7-1.2-1.4-5.2,4.3-17.7c2.2-4.9,7.4-13.1,16.3-21c1,3.2,1.7,6.3,1.6,9.2
      C409.4,300.1,395.6,307.3,387.3,310.3z"/>
  </symbol>

  <symbol id="ps-logo" viewBox="0 0 240 234">
    <g id="Layer_2_1_"><g id="Surfaces"><g id="Photo_Surface"><path d="M42.5 0h155C221 0 240 19 240 42.5v149c0 23.5-19 42.5-42.5 42.5h-155C19 234 0 215 0 191.5v-149C0 19 19 0 42.5 0z" style="fill:#001e36" id="Outline_no_shadow"/></g></g><g id="Outlined_Mnemonics_Logos"><g id="Ps"><path style="fill:#31a8ff"  d="M54 164.1V61.2c0-.7.3-1.1 1-1.1 1.7 0 3.3 0 5.6-.1 2.4-.1 4.9-.1 7.6-.2 2.7-.1 5.6-.1 8.7-.2 3.1-.1 6.1-.1 9.1-.1 8.2 0 15 1 20.6 3.1 5 1.7 9.6 4.5 13.4 8.2 3.2 3.2 5.7 7.1 7.3 11.4 1.5 4.2 2.3 8.5 2.3 13 0 8.6-2 15.7-6 21.3-4 5.6-9.6 9.8-16.1 12.2-6.8 2.5-14.3 3.4-22.5 3.4-2.4 0-4 0-5-.1s-2.4-.1-4.3-.1V164c.1.7-.4 1.3-1.1 1.4H55.2c-.8 0-1.2-.4-1.2-1.3zm21.8-84.7V113c1.4.1 2.7.2 3.9.2H85c3.9 0 7.8-.6 11.5-1.8 3.2-.9 6-2.8 8.2-5.3 2.1-2.5 3.1-5.9 3.1-10.3.1-3.1-.7-6.2-2.3-8.9a14.5 14.5 0 0 0-7-5.7c-3.7-1.5-7.7-2.1-11.8-2-2.6 0-4.9 0-6.8.1-2-.1-3.4 0-4.1.1zM192 106.9c-3-1.6-6.2-2.7-9.6-3.4-3.7-.8-7.4-1.3-11.2-1.3-2-.1-4.1.2-6 .7-1.3.3-2.4 1-3.1 2-.5.8-.8 1.8-.8 2.7 0 .9.4 1.8 1 2.6.9 1.1 2.1 2 3.4 2.7 2.3 1.2 4.7 2.3 7.1 3.3 5.4 1.8 10.6 4.3 15.4 7.3 3.3 2.1 6 4.9 7.9 8.3 1.6 3.2 2.4 6.7 2.3 10.3.1 4.7-1.3 9.4-3.9 13.3-2.8 4-6.7 7.1-11.2 8.9-4.9 2.1-10.9 3.2-18.1 3.2-4.6 0-9.1-.4-13.6-1.3-3.5-.6-7-1.7-10.2-3.2-.7-.4-1.2-1.1-1.1-1.9v-17.4c0-.3.1-.7.4-.9.3-.2.6-.1.9.1 3.9 2.3 8 3.9 12.4 4.9 3.8 1 7.8 1.5 11.8 1.5 3.8 0 6.5-.5 8.3-1.4 1.6-.7 2.7-2.4 2.7-4.2 0-1.4-.8-2.7-2.4-4-1.6-1.3-4.9-2.8-9.8-4.7-5.1-1.8-9.8-4.2-14.2-7.2a25.9 25.9 0 0 1-7.6-8.5c-1.6-3.2-2.4-6.7-2.3-10.2 0-4.3 1.2-8.4 3.4-12.1 2.5-4 6.2-7.2 10.5-9.2 4.7-2.4 10.6-3.5 17.7-3.5 4.1 0 8.3.3 12.4.9 3 .4 5.9 1.2 8.6 2.3.4.1.8.5 1 .9.1.4.2.8.2 1.2v16.3c0 .4-.2.8-.5 1-.9.2-1.4.2-1.8 0z"/></g></g></g>
  </symbol>

  <symbol id="figma-logo" viewBox="0 0 200 300">
    <path d="M50 300c27.6 0 50-22.4 50-50v-50H50c-27.6 0-50 22.4-50 50s22.4 50 50 50z" style="fill:#0acf83"/><path d="M0 150c0-27.6 22.4-50 50-50h50v100H50c-27.6 0-50-22.4-50-50z" style="fill:#a259ff"/><path d="M0 50C0 22.4 22.4 0 50 0h50v100H50C22.4 100 0 77.6 0 50z" style="fill:#f24e1e"/><path d="M100 0h50c27.6 0 50 22.4 50 50s-22.4 50-50 50h-50V0z" style="fill:#ff7262"/><path d="M200 150c0 27.6-22.4 50-50 50s-50-22.4-50-50 22.4-50 50-50 50 22.4 50 50z" style="fill:#1abcfe"/>
  </symbol>
</svg>