<svg width="40" height="40" viewBox="0 0 40 40" fill="none" xmlns="http://www.w3.org/2000/svg">
<path d="M15.3133 12.565C15.2575 11.8358 15.2908 11.1058 15.3133 10.3766C15.3733 8.48165 15.5733 6.60498 16.0775 4.77081C16.1992 4.32915 16.3217 3.88665 16.5425 3.48081C16.5883 3.47165 16.635 3.45998 16.6817 3.45415C17.2183 3.38748 17.7525 3.30998 18.2925 3.26665C18.845 3.22248 19.3975 3.18415 19.9517 3.16748C20.3533 3.15581 20.755 3.16581 21.1567 3.16665C21.39 3.16748 21.625 3.15915 21.8575 3.17165C22.3625 3.19831 22.8675 3.23581 23.3725 3.26831C23.6575 3.82498 23.8367 4.41998 23.9925 5.02165C24.385 6.53415 24.5692 8.07748 24.6575 9.63498C24.7133 10.6291 24.7333 11.6241 24.7058 12.6183C24.6658 14.0675 24.5725 15.5691 24.4125 17.01C24.3733 16.995 22.6858 15.8866 21.8458 15.425C20.895 14.9016 19.9217 14.425 18.9333 13.98C18.0883 13.5991 17.23 13.2483 16.3617 12.9258C16.0158 12.7975 15.6792 12.6366 15.3133 12.565Z" fill="#00933E"/>
<path d="M15.3133 12.5649C15.6791 12.6366 16.0158 12.7966 16.3616 12.9258C17.2308 13.2483 18.0883 13.5999 18.9333 13.9799C19.9216 14.4249 20.8949 14.9024 21.8458 15.4249C22.6849 15.8866 23.5074 16.3758 24.3024 16.9099C24.3358 16.9324 24.3908 16.9708 24.4149 16.9824C24.3974 17.1366 24.3841 17.2641 24.3666 17.4183C24.2899 17.4333 24.2199 17.4683 24.1524 17.5049C23.1374 18.0516 22.1766 18.6799 21.2799 19.4033C20.5841 19.9649 19.9324 20.5733 19.3249 21.2316C18.9141 21.6766 18.5349 22.1474 18.1374 22.6033C17.6916 22.0499 17.2474 21.4949 16.7741 20.9649C16.5158 20.6758 16.2733 20.3716 15.9774 20.1174C15.8066 18.9574 15.6558 17.7949 15.5433 16.6291C15.4508 15.6708 15.3749 14.7108 15.3391 13.7474C15.3258 13.3541 15.3033 12.9599 15.3133 12.5649Z" fill="#2AC54B"/>
<path d="M28.3767 15.8042C28.4626 15.1333 28.5576 14.465 28.6117 13.79C28.7067 12.5992 28.6992 11.4108 28.5751 10.2217C28.4401 8.93833 28.1926 7.68 27.7801 6.455C27.4626 5.51083 27.0484 4.6125 26.5259 3.76417C26.5076 3.735 26.4976 3.70083 26.4834 3.66833C27.1117 3.7525 27.7284 3.895 28.3509 4.01084C28.6642 4.06917 28.9684 4.1775 29.2884 4.20334C29.6826 4.60084 29.9917 5.06333 30.2901 5.5325C31.0892 6.79083 31.6134 8.15584 31.8309 9.63334C31.9726 10.5917 31.9742 11.555 31.9034 12.5192C31.8417 13.3558 31.7167 14.1842 31.5534 15.0067C31.5442 15.0533 31.5276 15.0983 31.5142 15.1442C30.4492 15.2775 29.4076 15.5175 28.3767 15.8042Z" fill="#00933E"/>
<path d="M20.0025 36.4701C20.9442 36.4701 21.885 36.4726 22.8267 36.4676C22.96 36.4667 22.9992 36.4834 22.9633 36.6334C22.7117 37.7051 22.4692 38.7784 22.2292 39.8526C22.2033 39.9701 22.155 40.0001 22.0383 40.0001C20.6775 39.9959 19.3158 39.9959 17.955 40.0001C17.8475 40.0001 17.7992 39.9717 17.775 39.8642C17.535 38.7967 17.2958 37.7284 17.0417 36.6642C16.9958 36.4726 17.0617 36.4676 17.2142 36.4684C18.1433 36.4734 19.0733 36.4701 20.0025 36.4701Z" fill="#607D8B"/>
<path d="M13.0975 4.39087C12.9 4.83837 12.6692 5.27087 12.4884 5.7267C11.9917 6.9842 11.6759 8.28754 11.4975 9.62587C11.4309 10.1242 11.385 10.625 11.3492 11.1259C11.3209 11.24 11.2725 11.2909 11.1392 11.24C10.9667 11.175 10.7859 11.1325 10.6059 11.0884C9.76671 10.8825 8.92755 10.6792 8.08838 10.4742C8.10671 9.96587 8.19171 9.4667 8.29505 8.9692C8.49005 8.0267 8.83171 7.13754 9.27588 6.28587C9.30088 6.23837 9.33255 6.19504 9.36088 6.1492C9.38838 6.14004 9.41921 6.13587 9.44338 6.12087C10.1217 5.69754 10.825 5.3217 11.555 4.99754C12.06 4.7742 12.5642 4.5442 13.0975 4.39087Z" fill="#00933E"/>
<path d="M23.3725 3.26836C22.8675 3.23586 22.3625 3.19836 21.8575 3.17169C21.6241 3.15919 21.39 3.16669 21.1566 3.16669C20.755 3.16586 20.3533 3.15586 19.9516 3.16752C19.3983 3.18419 18.845 3.22169 18.2925 3.26669C17.7525 3.31002 17.2183 3.38752 16.6816 3.45419C16.635 3.46002 16.5891 3.47169 16.5425 3.48086C16.8508 2.68586 17.295 1.97336 17.8641 1.34086C18.2966 0.860024 18.8066 0.484191 19.3725 0.167524C19.8283 -0.112476 20.2725 2.43982e-05 20.7016 0.205858C21.6216 0.712524 22.3208 1.43586 22.8716 2.31669C23.0633 2.62169 23.2333 2.93752 23.3725 3.26836Z" fill="#2196F3"/>
<path d="M8.0891 10.475C8.92827 10.6791 9.76744 10.8825 10.6066 11.0891C10.7858 11.1333 10.9674 11.175 11.1399 11.2408C11.2733 11.2908 11.3216 11.2408 11.3499 11.1266C11.3183 11.725 11.3091 12.3241 11.3358 12.9225C11.3824 13.9633 11.4958 14.9983 11.6691 16.0258C11.6824 16.1066 11.7058 16.1883 11.6858 16.2716C11.2949 16.0083 10.9049 15.7433 10.5133 15.4816C9.8616 15.0458 9.18827 14.6475 8.5016 14.2691C8.4391 14.235 8.37244 14.2075 8.30744 14.1766C8.09994 12.9508 8.00744 11.7183 8.0891 10.475Z" fill="#2AC54B"/>
<path d="M34.0283 14.9092C33.6391 14.9325 33.2491 14.955 32.8599 14.9784C33.1124 13.7217 33.3058 12.455 33.3083 11.1709C33.3108 9.48504 32.9549 7.87338 32.2216 6.34921C31.9541 5.79338 31.6283 5.27254 31.3008 4.75171C31.3641 4.76671 31.4266 4.78004 31.4899 4.79588C31.7408 4.85754 31.9774 4.96921 32.2366 4.99838L32.2458 5.00588C32.2566 5.01588 32.2674 5.02504 32.2791 5.03504C32.6999 5.51421 33.0358 6.05171 33.3483 6.60338C33.8774 7.53671 34.2591 8.52588 34.4491 9.58588C34.5933 10.39 34.5758 11.1967 34.4974 12.0042C34.4083 12.9225 34.2691 13.8342 34.0741 14.7359C34.0608 14.7934 34.0433 14.8509 34.0283 14.9092Z" fill="#00933E"/>
<path d="M29.2875 4.205C28.9675 4.17833 28.6641 4.07083 28.35 4.0125C27.7275 3.89667 27.1108 3.75333 26.4825 3.67C26.1491 3.18083 25.8083 2.69667 25.4108 2.25583C24.5475 1.2975 23.6308 0.528333 22.4458 0C23.8083 0.2925 24.9975 0.81 26.18 1.53917C27.33 2.24917 28.3516 3.10917 29.2358 4.1325C29.255 4.155 29.27 4.18083 29.2875 4.205Z" fill="#2196F3"/>
<path d="M13.0975 4.39084C12.5642 4.54417 12.06 4.77417 11.555 4.99834C10.825 5.3225 10.1208 5.69834 9.44334 6.12167C9.41917 6.13667 9.38834 6.14084 9.36084 6.15C10.1575 4.71 11.2092 3.4875 12.5017 2.47167C12.5333 2.44667 12.5583 2.40667 12.6075 2.41334C13.0042 2.6875 13.4 2.96084 13.7967 3.235C13.5642 3.62084 13.3308 4.00584 13.0975 4.39084Z" fill="#90CAF9"/>
<path d="M5.68262 9.09415C5.72512 8.74831 5.84762 8.42332 5.96678 8.09998C6.43762 6.82831 7.14678 5.69748 8.01762 4.66332C8.76678 3.77415 9.61428 2.99248 10.5818 2.34415C10.9193 2.11832 11.2685 1.91165 11.6543 1.77332C11.2526 2.07748 10.8568 2.38748 10.486 2.72832C9.03262 4.06665 7.94512 5.64915 7.29178 7.52081C7.27428 7.57165 7.25762 7.62248 7.24012 7.67331C6.72928 8.11415 6.22012 8.55581 5.75428 9.04498C5.73428 9.06581 5.70678 9.07831 5.68262 9.09415Z" fill="#90CAF9"/>
<path d="M6.86665 13.4342C6.49332 13.285 6.12082 13.1359 5.74748 12.9875C5.70915 12.9725 5.66915 12.9609 5.62998 12.9475C5.54998 12.6159 5.53582 12.2759 5.50332 11.9392C5.44082 11.2842 5.40832 10.6284 5.50165 9.97253C5.91165 10.0484 6.32082 10.1234 6.73082 10.1992C6.65165 11.2109 6.70915 12.2167 6.85165 13.22C6.86165 13.29 6.86248 13.3625 6.86665 13.4342Z" fill="#2AC54B"/>
<path d="M6.73088 10.1983C6.32088 10.1225 5.91171 10.0475 5.50171 9.97167C5.54671 9.67584 5.56254 9.37417 5.68254 9.09417C5.70671 9.07834 5.73504 9.06584 5.75421 9.04501C6.22004 8.55584 6.72921 8.11334 7.24004 7.67334C7.05254 8.31001 6.88421 8.95084 6.80254 9.61167C6.77754 9.80751 6.75421 10.0033 6.73088 10.1983Z" fill="#00933E"/>
<path d="M32.2192 4.94748C31.3483 3.87831 30.3642 2.93248 29.1908 2.19831C28.9175 2.02748 28.6425 1.84914 28.3225 1.76831C29.4875 2.58998 30.4725 3.59248 31.3 4.75081C31.3633 4.76581 31.4258 4.77914 31.4892 4.79498C31.74 4.85664 31.9767 4.96831 32.2358 4.99748C32.2308 4.97998 32.23 4.95998 32.2192 4.94748Z" fill="#2196F3"/>
<path d="M23.195 30.8175C23.3558 31.1058 23.4833 31.41 23.6008 31.7175C22.9008 32.5625 22.1625 33.3733 21.3841 34.1475C21.3766 34.14 21.315 34.2117 21.3608 34.1258C21.77 33.4508 22.17 32.7708 22.5366 32.0717C22.7558 31.6533 22.9758 31.2358 23.195 30.8175Z" fill="#FF6F00"/>
<path d="M16.9251 0.149963C16.4009 0.309129 15.8768 0.469963 15.3893 0.728296C15.3393 0.746629 15.2876 0.760796 15.2401 0.782463C14.5009 1.12163 13.7993 1.52663 13.1368 1.99663C12.9543 2.1258 12.7709 2.23413 12.5718 2.41246C12.9684 2.68663 13.4018 2.9608 13.7976 3.23496C14.1276 2.8183 14.4418 2.3883 14.8176 2.00996C15.0318 1.79413 15.2476 1.57913 15.4626 1.36413C15.5243 1.36413 15.5551 1.31246 15.5943 1.2783C15.8759 1.03496 16.1751 0.816629 16.4843 0.610796C16.8259 0.382463 17.1901 0.194129 17.5551 0.0032959C17.3401 0.0424626 17.1301 0.0874626 16.9251 0.149963Z" fill="#2196F3"/>
<path d="M23.8726 32.345C23.9092 32.4308 23.9451 32.5166 23.9817 32.6025C23.5226 33.1066 22.4851 34.1791 22.4734 34.1683C22.9201 33.6016 23.4251 32.9116 23.8726 32.345Z" fill="#FF6F00"/>
<path d="M21.2974 34.2417L21.2891 34.2442L21.2991 34.2434L21.2974 34.2417Z" fill="#9A2150"/>
<path d="M11.7108 16.3091C11.7017 16.2958 11.6925 16.2825 11.6833 16.27C11.7242 16.2608 11.7108 16.2891 11.7108 16.3091Z" fill="#2AC54B"/>
<path d="M32.2785 5.03332C32.2676 5.02332 32.2568 5.01332 32.2451 5.00415C32.2568 5.01415 32.2676 5.02415 32.2785 5.03332Z" fill="#2AC54B"/>
<path d="M21.8341 28.1508L21.8399 28.1391L21.6841 27.885C21.2816 27.1791 20.8191 26.5075 20.3991 25.79C19.2082 23.755 17.2466 21.4958 16.7732 20.9658C16.5149 20.6766 16.2724 20.3725 15.9766 20.1183C16.1249 21.0791 16.2782 22.04 16.4682 22.9933C16.5707 23.5075 16.7924 24.5325 16.7924 24.5325L17.5182 27.67C17.5241 27.6991 17.5291 27.7283 17.5357 27.7575C17.5424 27.7833 17.5499 27.8083 17.5557 27.8341L17.5816 27.9466L17.6624 28.24C17.9041 29.21 18.1532 30.1791 18.4266 31.1408C18.6432 31.9025 18.8691 32.6624 19.0924 33.4225L19.0957 33.4333C19.1799 33.72 19.2641 34.0066 19.3466 34.2941C19.3807 34.4108 19.4307 34.4558 19.5582 34.4508C19.8582 34.44 20.1582 34.4416 20.4582 34.45C20.5699 34.4533 20.6132 34.4125 20.6432 34.31C20.8641 33.5583 21.0966 32.8091 21.3141 32.0566C21.6257 30.9758 21.9274 29.8916 22.1982 28.8C22.0841 28.5816 21.9557 28.3683 21.8341 28.1508Z" fill="#FF6F00"/>
<path d="M13.406 22.6958C12.6926 20.6067 12.1018 18.4842 11.711 16.3092C11.7018 16.2967 11.6926 16.2833 11.6843 16.2708C11.2943 16.0075 10.9043 15.7433 10.5135 15.4817C9.86178 15.0458 9.18845 14.6475 8.50178 14.2692C8.43928 14.235 8.37262 14.2075 8.30762 14.1775C8.31928 14.26 8.32928 14.3433 8.34428 14.4258C8.67012 16.2508 9.19345 18.0217 9.83428 19.7592C10.601 21.8375 11.5276 23.8433 12.5435 25.81C12.811 26.3283 13.0918 26.8383 13.3793 27.3433C13.676 26.67 14.0185 25.9967 14.4085 25.4008C14.0551 24.5058 13.7168 23.6067 13.406 22.6958Z" fill="#9A2150"/>
<path d="M11.6833 16.27L11.6842 16.2709L11.685 16.2717L11.6833 16.27Z" fill="#9A2150"/>
<path d="M12.9925 27.9842C11.6125 25.8733 10.3342 23.705 9.29003 21.405C8.50669 19.68 7.85503 17.9092 7.39169 16.07C7.17253 15.2 7.00753 14.3192 6.86753 13.4342C6.49419 13.285 6.12169 13.1358 5.74836 12.9875C5.71003 12.9725 5.67003 12.9608 5.63086 12.9475C5.63419 13.0075 5.63336 13.0675 5.64169 13.1267C5.85003 14.5575 6.18669 15.9575 6.63753 17.3308C7.61253 20.3 9.04003 23.0517 10.6817 25.6975C11.3409 26.7592 12.06 27.775 12.8117 28.765C12.8909 28.5467 12.975 28.3233 13.0659 28.0942C13.0417 28.0575 13.015 28.0183 12.9925 27.9842Z" fill="#9A2150"/>
<path d="M17.6384 33.1242C17.9476 33.4592 18.2617 33.79 18.5801 34.13C18.6217 34.0325 17.5893 32.3184 17.1576 31.49C16.6659 30.5459 15.2626 27.4834 15.2442 27.44C14.9526 26.765 14.6768 26.0842 14.4076 25.4009C14.0176 25.9967 13.6751 26.6692 13.3784 27.3434C13.9668 28.3767 14.5984 29.3842 15.3101 30.3425C16.0318 31.315 16.8168 32.235 17.6384 33.1242Z" fill="#FF6F00"/>
<path d="M16.7543 33.3784C17.0184 33.6434 17.2984 33.8925 17.5418 34.1209C17.5459 34.1617 14.4518 30.1892 13.0659 28.0934C12.9751 28.3226 12.8909 28.5467 12.8118 28.7642C13.8026 30.07 14.8568 31.3267 15.9676 32.54C16.2259 32.8225 16.4834 33.1067 16.7543 33.3784Z" fill="#FF6F00"/>
<path d="M22.2009 28.8009L18.1384 22.605C18.1384 22.605 21.6026 17.9592 24.3676 17.4192C24.3676 17.4192 23.8726 23.11 22.2009 28.8009Z" fill="#BED70F"/>
<path d="M27.1409 21.0133C26.3484 23.6075 25.3659 26.1292 24.2426 28.5958C23.9034 29.3408 23.5451 30.0767 23.1951 30.8175C23.3559 31.1058 23.4834 31.41 23.6009 31.7175C24.1259 31.125 24.5984 30.4925 25.0551 29.8475C26.2509 28.1608 27.2092 26.3383 28.1251 24.4917C28.4334 23.8708 28.7209 23.2392 29.0042 22.6058C29.2484 22.0617 29.4792 21.5133 29.7026 20.9617L27.5101 19.6633C27.3884 20.1142 27.2776 20.5667 27.1409 21.0133Z" fill="#BED70F"/>
<path d="M34.0285 14.9092C33.9376 14.9142 33.846 14.92 33.7551 14.925C33.8526 14.9217 33.9451 14.9183 34.0268 14.9167C34.0268 14.9142 34.0276 14.9117 34.0285 14.9092Z" fill="#BED70F"/>
<path d="M30.3676 22.1375C28.8817 25.2016 27.0642 28.0625 25.0401 30.795C24.6551 31.315 24.2617 31.8283 23.8726 32.345C23.9092 32.4308 23.9451 32.5167 23.9817 32.6025C24.0234 32.56 24.0676 32.5191 24.1076 32.475C24.8826 31.6167 25.6334 30.7391 26.3609 29.84C28.2692 27.4808 29.8951 24.94 31.2834 22.245C31.3292 22.1558 31.3676 22.0633 31.4126 21.9741L30.6509 21.5233C30.5567 21.7283 30.4659 21.9341 30.3676 22.1375Z" fill="#BED70F"/>
<path d="M31.5125 15.1459C30.4483 15.2767 29.4075 15.5175 28.3758 15.8042C28.3633 15.8742 28.3508 15.9442 28.3383 16.0142C28.1283 17.2467 27.8367 18.46 27.51 19.6642L29.7025 20.9625C30.2617 19.5817 30.7542 18.1767 31.1442 16.7342C31.2867 16.2092 31.4258 15.6834 31.5125 15.1459Z" fill="#4CAF50"/>
<path d="M34.0269 14.9166C33.9452 14.9183 33.8527 14.9216 33.7552 14.925C33.4569 14.9425 33.1585 14.96 32.8602 14.9775C32.6952 15.78 32.491 16.5733 32.2519 17.3566C31.816 18.7833 31.276 20.1708 30.6519 21.5233L31.4135 21.9741C32.0952 20.6266 32.7069 19.2491 33.2044 17.8233C33.536 16.8716 33.8194 15.9041 34.0269 14.9166Z" fill="#4CAF50"/>
</svg>
