<svg width="27" height="40" viewBox="0 0 27 40" fill="none" xmlns="http://www.w3.org/2000/svg">
<path d="M6.66802 40C10.3473 40 13.3334 37.0133 13.3334 33.3333V26.6666H6.66802C2.98876 26.6666 0.00268555 29.6533 0.00268555 33.3333C0.00268555 37.0133 2.98876 40 6.66802 40Z" fill="#0ACF83"/>
<path d="M0.00268555 20C0.00268555 16.32 2.98876 13.3334 6.66802 13.3334H13.3334V26.6667H6.66802C2.98876 26.6667 0.00268555 23.68 0.00268555 20Z" fill="#A259FF"/>
<path d="M0.00268555 6.66667C0.00268555 2.98667 2.98876 0 6.66802 0H13.3334V13.3333H6.66802C2.98876 13.3333 0.00268555 10.3467 0.00268555 6.66667Z" fill="#F24E1E"/>
<path d="M13.3333 0H19.9986C23.6779 0 26.6639 2.98667 26.6639 6.66667C26.6639 10.3467 23.6779 13.3333 19.9986 13.3333H13.3333V0Z" fill="#FF7262"/>
<path d="M26.6639 20C26.6639 23.68 23.6779 26.6667 19.9986 26.6667C16.3193 26.6667 13.3333 23.68 13.3333 20C13.3333 16.32 16.3193 13.3334 19.9986 13.3334C23.6779 13.3334 26.6639 16.32 26.6639 20Z" fill="#1ABCFE"/>
</svg>
