<svg width="40" height="39" viewBox="0 0 40 39" fill="none" xmlns="http://www.w3.org/2000/svg">
<g clip-path="url(#clip0_587_110)">
<path d="M7.08333 0H32.9167C36.8333 0 40 3.16667 40 7.08333V31.9167C40 35.8333 36.8333 39 32.9167 39H7.08333C3.16667 39 0 35.8333 0 31.9167V7.08333C0 3.16667 3.16667 0 7.08333 0Z" fill="#330000"/>
<path d="M19.3333 23.3334H13.1333L11.8667 27.25C11.8333 27.4 11.7 27.5 11.55 27.4834H8.41668C8.23335 27.4834 8.18335 27.3834 8.23335 27.1834L13.6 11.7334C13.65 11.5667 13.7 11.3834 13.7667 11.1834C13.8333 10.8334 13.8667 10.4667 13.8667 10.1C13.85 10.0167 13.9167 9.93336 14 9.91669H18.3167C18.45 9.91669 18.5167 9.96669 18.5333 10.05L24.6167 27.2167C24.6667 27.4 24.6167 27.4834 24.45 27.4834H20.9667C20.85 27.5 20.7333 27.4167 20.7 27.3L19.3333 23.3334ZM14.1 19.95H18.3333C18.2333 19.6 18.1 19.1834 17.95 18.75C17.8 18.3 17.65 17.8167 17.5 17.3167C17.3333 16.8 17.1833 16.3 17.0167 15.7834C16.85 15.2667 16.7 14.7834 16.5667 14.3C16.4333 13.8334 16.3167 13.4 16.2 13H16.1667C16.0167 13.7167 15.8333 14.4334 15.6 15.15C15.35 15.95 15.1 16.7834 14.8333 17.6167C14.6 18.4667 14.35 19.25 14.1 19.95ZM28.3333 12.8334C27.7833 12.85 27.25 12.6334 26.85 12.25C26.4667 11.8334 26.2667 11.2834 26.2833 10.7167C26.2667 10.15 26.4833 9.61669 26.8833 9.23336C27.2833 8.85002 27.8167 8.65002 28.3667 8.65002C29.0167 8.65002 29.5167 8.85002 29.8833 9.23336C30.25 9.63336 30.45 10.1667 30.4333 10.7167C30.45 11.2834 30.25 11.8334 29.85 12.25C29.4667 12.65 28.9 12.8667 28.3333 12.8334ZM26.4667 27.3V14.4667C26.4667 14.3 26.5333 14.2334 26.6833 14.2334H29.9833C30.1333 14.2334 30.2 14.3167 30.2 14.4667V27.3C30.2 27.4834 30.1333 27.5667 29.9833 27.5667H26.7167C26.55 27.5667 26.4667 27.4667 26.4667 27.3Z" fill="#FF9A00"/>
</g>
<defs>
<clipPath id="clip0_587_110">
<rect width="40" height="39" fill="white"/>
</clipPath>
</defs>
</svg>
