<svg width="40" height="36" viewBox="0 0 40 36" fill="none" xmlns="http://www.w3.org/2000/svg">
<g clip-path="url(#clip0_587_235)">
<path d="M19.9998 21.3596C21.9688 21.3596 23.565 19.7634 23.565 17.7943C23.565 15.8253 21.9688 14.2291 19.9998 14.2291C18.0308 14.2291 16.4346 15.8253 16.4346 17.7943C16.4346 19.7634 18.0308 21.3596 19.9998 21.3596Z" fill="#61DAFB"/>
<path d="M20.0001 25.0987C30.5655 25.0987 39.1305 21.8284 39.1305 17.7943C39.1305 13.7603 30.5655 10.49 20.0001 10.49C9.43462 10.49 0.869629 13.7603 0.869629 17.7943C0.869629 21.8284 9.43462 25.0987 20.0001 25.0987Z" stroke="#61DAFB"/>
<path d="M13.6745 21.4465C18.9572 30.5964 26.0718 36.3788 29.5654 34.3618C33.059 32.3447 31.6087 23.2921 26.326 14.1421C21.0432 4.9922 13.9286 -0.790159 10.435 1.22688C6.94138 3.24392 8.39173 12.2966 13.6745 21.4465Z" stroke="#61DAFB"/>
<path d="M13.6744 14.1421C8.39167 23.2921 6.94131 32.3447 10.4349 34.3617C13.9285 36.3788 21.0432 30.5964 26.3259 21.4465C31.6086 12.2965 33.059 3.24389 29.5654 1.22685C26.0717 -0.790185 18.9571 4.99218 13.6744 14.1421Z" stroke="#61DAFB"/>
</g>
<defs>
<clipPath id="clip0_587_235">
<rect width="40" height="35.5887" fill="white"/>
</clipPath>
</defs>
</svg>
