<svg width="40" height="40" viewBox="0 0 40 40" fill="none" xmlns="http://www.w3.org/2000/svg">
<g clip-path="url(#clip0_587_229)">
<path d="M19.9999 0L37.6766 10V30L19.9999 40L2.32324 30V10L19.9999 0Z" fill="white"/>
<path d="M34.5202 29.31L20.5835 37.1933V31.0533L29.2669 26.2766L34.5202 29.31ZM35.4735 28.4466V11.96L30.3735 14.9033V25.5L35.4735 28.4466ZM5.42355 29.31L19.3602 37.1933V31.0533L10.6769 26.2766L5.42355 29.31ZM4.47021 28.4466V11.96L9.57021 14.9033V25.5L4.47021 28.4466ZM5.06688 10.8933L19.3602 2.80664V8.74331L10.2035 13.78L10.1335 13.82L5.06688 10.8933ZM34.8769 10.8933L20.5835 2.80664V8.74331L29.7402 13.78L29.8102 13.82L34.8769 10.8933Z" fill="#8ED6FB"/>
<path d="M19.3601 29.6567L10.7935 24.9467V15.6133L19.3601 20.56V29.6567ZM20.5835 29.6567L29.1501 24.9467V15.6133L20.5835 20.56V29.6567ZM11.3735 14.5333L19.9735 9.80334L28.5735 14.5333L19.9735 19.5L11.3735 14.5333Z" fill="#1C78C0"/>
</g>
<defs>
<clipPath id="clip0_587_229">
<rect width="40" height="40" fill="white"/>
</clipPath>
</defs>
</svg>
