<svg width="29" height="40" viewBox="0 0 29 40" fill="none" xmlns="http://www.w3.org/2000/svg">
<g clip-path="url(#clip0_587_149)">
<path d="M28.3396 7.86096L25.7575 36.7828L14.1528 40L2.57939 36.7875L0.000488281 7.86096H28.3396Z" fill="#264DE4"/>
<path d="M23.5473 34.9415L25.7535 10.2258H14.1699V37.5407L23.5473 34.9415Z" fill="#2965F1"/>
<path d="M5.91299 20.9546L6.23096 24.5023H14.17V20.9546H5.91299ZM14.17 13.7742H5.27393L5.59658 17.3218H14.17V13.7742ZM14.17 33.8593V30.1679L14.1544 30.1726L10.2036 29.1054L9.95049 26.2757H6.38955L6.88643 31.846L14.1536 33.864L14.17 33.8593Z" fill="#EBEBEB"/>
<path d="M6.66992 0H10.9668V1.79688H8.4668V3.59375H10.9668V5.39062H6.66992V0ZM11.8262 0H16.123V1.5625H13.623V1.875H16.123V5.46875H11.8262V3.82812H14.3262V3.51562H11.8262V0ZM16.9824 0H21.2793V1.5625H18.7793V1.875H21.2793V5.46875H16.9824V3.82812H19.4824V3.51562H16.9824V0Z" fill="black"/>
<path d="M18.5262 24.5023L18.1145 29.1031L14.1575 30.171V33.8625L21.4309 31.846L21.484 31.2468L22.3176 21.907L22.4043 20.9546L23.045 13.7742H14.1575V17.3218H19.1567L18.834 20.9546H14.1575V24.5023H18.5262Z" fill="white"/>
</g>
<defs>
<clipPath id="clip0_587_149">
<rect width="28.339" height="40" fill="white"/>
</clipPath>
</defs>
</svg>
