<svg width="40" height="30" viewBox="0 0 40 30" fill="none" xmlns="http://www.w3.org/2000/svg">
<g clip-path="url(#clip0_587_214)">
<path d="M34.4213 17.2325C33.0266 17.2398 31.8145 17.5757 30.7995 18.0723C30.4271 17.3348 30.0547 16.6776 29.989 16.1957C29.916 15.6334 29.8284 15.2902 29.916 14.6184C30.0036 13.9467 30.3979 12.9901 30.3906 12.9171C30.3833 12.8441 30.303 12.5009 29.4998 12.4936C28.6966 12.4863 28.0029 12.6469 27.9226 12.8587C27.8422 13.0704 27.6889 13.5524 27.5867 14.0489C27.4479 14.7791 25.9802 17.3859 25.1405 18.7513C24.8703 18.2183 24.6367 17.751 24.5856 17.3786C24.5126 16.8163 24.4249 16.4731 24.5126 15.8014C24.6002 15.1296 24.9945 14.173 24.9872 14.1C24.9799 14.027 24.8996 13.6838 24.0963 13.6765C23.2931 13.6692 22.5994 13.8298 22.5191 14.0416C22.4388 14.2534 22.3512 14.7499 22.1832 15.2318C22.0153 15.7137 20.0657 20.0657 19.5545 21.1902C19.2917 21.767 19.0653 22.2271 18.9047 22.541C18.9047 22.541 18.8974 22.563 18.8755 22.5995C18.7367 22.8696 18.6564 23.0157 18.6564 23.0157C18.6564 23.0157 18.6564 23.0157 18.6564 23.023C18.5469 23.2201 18.43 23.4027 18.3716 23.4027C18.3278 23.4027 18.2475 22.8769 18.3862 22.1613C18.6783 20.6498 19.372 18.2986 19.3647 18.2183C19.3647 18.1745 19.4961 17.7656 18.912 17.5538C18.3424 17.3421 18.138 17.6926 18.0869 17.6926C18.0357 17.6926 17.9992 17.8167 17.9992 17.8167C17.9992 17.8167 18.6345 15.1734 16.7871 15.1734C15.6334 15.1734 14.0416 16.4366 13.253 17.5757C12.7564 17.8459 11.6977 18.4228 10.5659 19.0434C10.135 19.2844 9.68963 19.5253 9.27342 19.7517C9.24421 19.7225 9.215 19.686 9.1858 19.6568C6.9514 17.269 2.81851 15.5823 2.99375 12.3768C3.05947 11.2084 3.46108 8.14163 10.931 4.41764C17.0792 1.38734 21.9715 2.22706 22.8185 4.08906C24.0306 6.74696 20.1971 11.6831 13.8444 12.3987C11.4202 12.6688 10.1497 11.7342 9.82837 11.3837C9.49248 11.0186 9.44136 10.9967 9.31723 11.0697C9.11278 11.1792 9.24421 11.5078 9.31723 11.6977C9.50708 12.1942 10.2884 13.0704 11.61 13.5013C12.7783 13.881 15.6188 14.0927 19.058 12.7638C22.9061 11.2742 25.9145 7.13396 25.031 3.66554C24.1475 0.146011 18.3059 -1.015 12.7783 0.949224C9.49248 2.11753 5.92913 3.95762 3.36615 6.35266C0.321246 9.20041 -0.160681 11.6758 0.0364711 12.7126C0.744759 16.3928 5.8196 18.7879 7.84954 20.5622C7.74731 20.6206 7.65239 20.6718 7.57207 20.7156C6.5571 21.2194 2.68707 23.242 1.72322 25.3815C0.627928 27.8057 1.89846 29.5436 2.73819 29.7773C5.34498 30.5002 8.02479 29.2004 9.46327 27.0536C10.9018 24.9069 10.7265 22.1175 10.062 20.8397C10.0547 20.8251 10.0474 20.8105 10.0328 20.7959C10.2957 20.6425 10.5659 20.4819 10.8287 20.3286C11.3472 20.0219 11.8583 19.7371 12.2964 19.5034C12.0482 20.1825 11.8656 20.993 11.778 22.1613C11.6685 23.5341 12.2307 25.3158 12.9682 26.0168C13.2968 26.3234 13.6838 26.3307 13.9321 26.3307C14.7937 26.3307 15.1807 25.6152 15.6115 24.7681C16.1372 23.7313 16.6119 22.5264 16.6119 22.5264C16.6119 22.5264 16.0204 25.7831 17.6268 25.7831C18.211 25.7831 18.8024 25.0237 19.0653 24.6367C19.0653 24.644 19.0653 24.644 19.0653 24.644C19.0653 24.644 19.0799 24.6221 19.1091 24.571C19.1675 24.4761 19.2041 24.4176 19.2041 24.4176C19.2041 24.4176 19.2041 24.4103 19.2041 24.403C19.4377 23.9941 19.9635 23.0668 20.7448 21.5261C21.7524 19.5399 22.7236 17.0573 22.7236 17.0573C22.7236 17.0573 22.8112 17.6634 23.1106 18.671C23.2858 19.2625 23.6509 19.9123 23.943 20.5403C23.7093 20.8689 23.5633 21.0514 23.5633 21.0514C23.5633 21.0514 23.5633 21.0515 23.5706 21.0588C23.3808 21.307 23.1763 21.5772 22.9499 21.8401C22.154 22.7893 21.2048 23.8773 21.0733 24.1913C20.92 24.5637 20.9565 24.8339 21.2486 25.0529C21.4603 25.2136 21.84 25.2355 22.2271 25.2136C22.9426 25.1624 23.4465 24.9872 23.6947 24.8777C24.0817 24.7389 24.5345 24.5272 24.958 24.2132C25.7393 23.6363 26.2139 22.8112 26.1701 21.7232C26.1482 21.1245 25.951 20.5257 25.7101 19.9635C25.7831 19.8612 25.8488 19.759 25.9218 19.6568C27.1559 17.8532 28.1124 15.8744 28.1124 15.8744C28.1124 15.8744 28.2 16.4804 28.4994 17.4881C28.6455 17.9992 28.9448 18.5542 29.2077 19.0945C28.0467 20.0365 27.3311 21.1318 27.0755 21.8474C26.6155 23.1763 26.9733 23.7751 27.6524 23.9138C27.9591 23.9795 28.3972 23.8335 28.7185 23.6947C29.1274 23.5633 29.6093 23.337 30.0693 23.0011C30.8506 22.4242 31.6027 21.621 31.5589 20.533C31.537 20.0365 31.4056 19.5473 31.223 19.0726C32.2088 18.6637 33.4793 18.4374 35.1004 18.6272C38.5761 19.0361 39.2625 21.2048 39.131 22.1175C38.9996 23.0303 38.2694 23.5268 38.0284 23.6801C37.7875 23.8335 37.7072 23.8846 37.7291 23.9941C37.7583 24.1548 37.8751 24.1475 38.0796 24.1183C38.3643 24.0671 39.905 23.3808 39.9708 21.7013C40.0803 19.5546 38.0357 17.2106 34.4213 17.2325ZM7.60858 26.2723C6.45487 27.5283 4.84845 28.0029 4.15476 27.6013C3.40997 27.1705 3.70204 25.3158 5.11862 23.9868C5.98025 23.1763 7.09014 22.4242 7.82764 21.9642C7.99558 21.862 8.24385 21.7159 8.54323 21.5334C8.59434 21.5042 8.62355 21.4896 8.62355 21.4896C8.68196 21.4531 8.74038 21.4165 8.79879 21.38C9.31723 23.2785 8.8207 24.9507 7.60858 26.2723ZM16.0058 20.5622C15.6042 21.5407 14.7645 24.0452 14.2533 23.9065C13.8152 23.7897 13.545 21.8912 14.1657 20.0146C14.4797 19.0726 15.1442 17.9481 15.5312 17.51C16.1591 16.809 16.8528 16.5754 17.0208 16.8601C17.2325 17.2325 16.2541 19.9489 16.0058 20.5622ZM22.9353 23.8773C22.7674 23.9649 22.6068 24.0233 22.5337 23.9795C22.4826 23.9503 22.6068 23.8335 22.6068 23.8335C22.6068 23.8335 23.4757 22.8988 23.8189 22.4753C24.016 22.2271 24.2497 21.935 24.498 21.6064C24.498 21.6356 24.498 21.6721 24.498 21.7013C24.498 22.8185 23.4173 23.5706 22.9353 23.8773ZM28.2804 22.6579C28.1562 22.5703 28.1781 22.2782 28.5943 21.3654C28.755 21.0076 29.1347 20.4089 29.7846 19.832C29.8576 20.0657 29.9087 20.292 29.9014 20.5038C29.8941 21.9131 28.8864 22.4388 28.2804 22.6579Z" fill="#CD6799"/>
</g>
<defs>
<clipPath id="clip0_587_214">
<rect width="40" height="29.9817" fill="white"/>
</clipPath>
</defs>
</svg>
