<svg width="42" height="40" viewBox="0 0 42 40" fill="none" xmlns="http://www.w3.org/2000/svg">
<path d="M7.26042 0H33.7396C37.7542 0 41 3.24786 41 7.26496V32.735C41 36.7521 37.7542 40 33.7396 40H7.26042C3.24583 40 0 36.7521 0 32.735V7.26496C0 3.24786 3.24583 0 7.26042 0Z" fill="#001E36"/>
<path d="M9.23071 28.0512V10.4615C9.23071 10.3418 9.28199 10.2735 9.40165 10.2735C9.69225 10.2735 9.96576 10.2735 10.3589 10.2564C10.7692 10.2393 11.1965 10.2393 11.6581 10.2222C12.1196 10.2051 12.6153 10.2051 13.1452 10.188C13.6752 10.1709 14.188 10.1709 14.7008 10.1709C16.1025 10.1709 17.2649 10.3418 18.2222 10.7008C19.0769 10.9914 19.8632 11.47 20.5128 12.1025C21.0598 12.6495 21.4871 13.3162 21.7606 14.0512C22.017 14.7692 22.1538 15.5042 22.1538 16.2735C22.1538 17.7435 21.8119 18.9572 21.1281 19.9145C20.4444 20.8718 19.4871 21.5897 18.376 22C17.2136 22.4273 15.9316 22.5812 14.5299 22.5812C14.1196 22.5812 13.8461 22.5812 13.6752 22.5641C13.5042 22.547 13.2649 22.547 12.9401 22.547V28.0341C12.9572 28.1538 12.8717 28.2564 12.7521 28.2735H9.43584C9.29909 28.2735 9.23071 28.2051 9.23071 28.0512ZM12.9572 13.5726V19.3162C13.1965 19.3333 13.4187 19.3504 13.6239 19.3504H14.5299C15.1965 19.3504 15.8632 19.2478 16.4957 19.0427C17.0427 18.8888 17.5213 18.5641 17.8974 18.1367C18.2564 17.7094 18.4273 17.1282 18.4273 16.376C18.4444 15.8461 18.3076 15.3162 18.0341 14.8547C17.7491 14.4108 17.3299 14.0695 16.8376 13.8803C16.2051 13.6239 15.5213 13.5213 14.8205 13.5384C14.376 13.5384 13.9829 13.5384 13.6581 13.5555C13.3162 13.5384 13.0769 13.5555 12.9572 13.5726ZM32.8205 18.2735C32.3076 18 31.7606 17.8119 31.1794 17.6923C30.547 17.5555 29.9145 17.47 29.2649 17.47C28.923 17.4529 28.564 17.5042 28.2393 17.5897C28.017 17.641 27.829 17.7606 27.7093 17.9316C27.6239 18.0683 27.5726 18.2393 27.5726 18.3931C27.5726 18.547 27.641 18.7008 27.7435 18.8376C27.8974 19.0256 28.1025 19.1794 28.3247 19.2991C28.7179 19.5042 29.1282 19.6923 29.5384 19.8632C30.4615 20.1709 31.3504 20.5982 32.1709 21.1111C32.735 21.47 33.1965 21.9487 33.5213 22.5299C33.7948 23.0769 33.9316 23.6752 33.9145 24.2906C33.9316 25.094 33.6923 25.8974 33.2478 26.5641C32.7692 27.2478 32.1025 27.7777 31.3333 28.0854C30.4957 28.4444 29.47 28.6324 28.2393 28.6324C27.4529 28.6324 26.6837 28.5641 25.9145 28.4102C25.3162 28.3076 24.7179 28.1196 24.1709 27.8632C24.0512 27.7948 23.9658 27.6752 23.9829 27.5384V24.5641C23.9829 24.5128 23.9999 24.4444 24.0512 24.4102C24.1025 24.376 24.1538 24.3931 24.2051 24.4273C24.8717 24.8205 25.5726 25.094 26.3247 25.2649C26.9743 25.4359 27.6581 25.5213 28.3418 25.5213C28.9914 25.5213 29.4529 25.4359 29.7606 25.282C30.0341 25.1624 30.2222 24.8718 30.2222 24.5641C30.2222 24.3247 30.0854 24.1025 29.8119 23.8803C29.5384 23.6581 28.9743 23.4017 28.1367 23.0769C27.2649 22.7692 26.4615 22.3589 25.7093 21.8461C25.1737 21.4643 24.7299 20.9679 24.4102 20.3931C24.1367 19.8461 23.9999 19.2478 24.017 18.6495C24.017 17.9145 24.2222 17.2136 24.5982 16.5812C25.0256 15.8974 25.6581 15.3504 26.3931 15.0085C27.1965 14.5982 28.2051 14.4102 29.4188 14.4102C30.1196 14.4102 30.8376 14.4615 31.5384 14.5641C32.0512 14.6324 32.547 14.7692 33.0085 14.9572C33.0769 14.9743 33.1452 15.0427 33.1794 15.1111C33.1965 15.1794 33.2136 15.2478 33.2136 15.3162V18.1025C33.2136 18.1709 33.1794 18.2393 33.1282 18.2735C32.9743 18.3077 32.8888 18.3077 32.8205 18.2735Z" fill="#31A8FF"/>
</svg>
