<svg width="37" height="40" viewBox="0 0 37 40" fill="none" xmlns="http://www.w3.org/2000/svg">
<g clip-path="url(#clip0_587_241)">
<path d="M33.9184 19.6754C33.9184 17.6211 32.2531 15.9558 30.1988 15.9558C30.0667 15.9558 29.9363 15.9629 29.8079 15.9763L34.9167 0.908447H13.2059L18.3075 15.9633C18.2327 15.9588 18.1575 15.9558 18.0815 15.9558C16.0272 15.9558 14.3619 17.6211 14.3619 19.6754C14.3619 21.3359 15.4501 22.7417 16.9522 23.22C16.1588 24.5941 15.1607 25.8317 14.0274 26.9008C12.4863 28.3547 10.7226 29.457 8.81521 30.1363C6.54412 28.9697 5.47161 26.3749 6.43938 24.1C6.54864 23.8431 6.66016 23.5827 6.76688 23.3234C8.41211 22.9394 9.63811 21.4643 9.63811 19.7021C9.63811 17.6478 7.97281 15.9825 5.91854 15.9825C3.86412 15.9825 2.19882 17.6478 2.19882 19.7021C2.19882 20.9619 2.82567 22.0744 3.78369 22.7473C2.86299 24.8436 1.50977 27.0372 1.08815 29.5797C0.582847 32.6269 1.08659 35.8614 3.72193 37.688C9.8596 41.9418 16.5219 35.0509 23.5465 33.3186C26.0922 32.6908 28.8867 32.792 31.1297 31.4929C32.8141 30.5174 33.9245 28.9007 34.2397 27.0856C34.5509 25.2925 34.097 23.5072 33.0534 22.0595C33.5932 21.4139 33.9184 20.5828 33.9184 19.6754ZM21.8008 19.6885C21.8008 19.6841 21.8012 19.6798 21.8012 19.6754C21.8012 18.3264 21.0829 17.1451 20.0081 16.493L24.0686 8.2823L28.1362 16.5801C27.1373 17.247 26.4791 18.3842 26.4791 19.6754C26.4791 19.7025 26.4807 19.7292 26.4812 19.7562L21.8008 19.6885Z" fill="#C63D14"/>
<path d="M34.8267 19.6753C34.8267 17.416 33.1989 15.5307 31.0546 15.1281L36.1838 0H11.9387L17.0756 15.1587C15.0059 15.6194 13.4534 17.469 13.4534 19.6753C13.4534 21.3323 14.3291 22.7877 15.6414 23.6055C15.0102 24.5459 14.2616 25.4308 13.4038 26.24C12.0435 27.5234 10.5279 28.4967 8.894 29.137C7.24834 28.1032 6.55266 26.1538 7.2752 24.4554L7.33174 24.3225C7.36707 24.2394 7.40255 24.156 7.43788 24.0726C9.24538 23.4424 10.5464 21.7218 10.5464 19.702C10.5464 17.1501 8.47025 15.0741 5.91831 15.0741C3.36637 15.0741 1.29032 17.1501 1.29032 19.702C1.29032 20.9901 1.81965 22.1565 2.67167 22.9963C2.51718 23.3257 2.35478 23.6604 2.18785 24.0032C1.40877 25.6034 0.5258 27.4171 0.191807 29.4311C-0.471514 33.431 0.598309 36.6284 3.20425 38.4345C4.78559 39.5305 6.39138 39.9616 8.00735 39.9614C11.0503 39.9613 14.1283 38.4326 17.1389 36.9372C19.3073 35.8603 21.5493 34.7467 23.764 34.2006C24.588 33.9973 25.4359 33.875 26.3336 33.7456C28.1136 33.4888 29.9545 33.2233 31.585 32.279C33.4749 31.1843 34.7688 29.348 35.1346 27.241C35.4486 25.4322 35.0705 23.6208 34.1487 22.0844C34.5785 21.3822 34.8267 20.5573 34.8267 19.6753ZM33.0099 19.6753C33.0099 21.2254 31.7488 22.4866 30.1986 22.4866C28.6486 22.4866 27.3874 21.2254 27.3874 19.6753C27.3874 18.1252 28.6486 16.8642 30.1986 16.8642C31.7488 16.8642 33.0099 18.1252 33.0099 19.6753ZM33.6493 1.81682L29.12 15.1755C28.9237 15.2226 28.7323 15.282 28.5464 15.3534L24.0721 6.22572L19.5847 15.2994C19.3908 15.2325 19.1912 15.1775 18.9866 15.1368L14.4728 1.81682H33.6493ZM18.0814 16.8642C19.6315 16.8642 20.8926 18.1252 20.8926 19.6753C20.8926 21.2254 19.6315 22.4866 18.0814 22.4866C16.5315 22.4866 15.2703 21.2254 15.2703 19.6753C15.2703 18.1252 16.5315 16.8642 18.0814 16.8642ZM5.91831 16.8909C7.46856 16.8909 8.72962 18.1519 8.72962 19.702C8.72962 21.2522 7.46856 22.5134 5.91831 22.5134C4.36834 22.5134 3.10714 21.2522 3.10714 19.702C3.10714 18.1519 4.36834 16.8909 5.91831 16.8909ZM33.3445 26.9302C33.071 28.5059 32.0977 29.8824 30.6744 30.7067C29.3476 31.4752 27.7576 31.7046 26.0742 31.9473C25.1724 32.0773 24.2399 32.2119 23.3289 32.4366C20.9201 33.0305 18.587 34.1894 16.3307 35.3101C11.8156 37.5528 7.91605 39.4895 4.2393 36.9412C1.54601 35.0746 1.67039 31.6209 1.98417 29.7283C2.27492 27.975 3.06107 26.3601 3.82135 24.7984C3.95294 24.5282 4.08071 24.2635 4.20608 24.0004C4.58319 24.1512 4.98417 24.254 5.40213 24.3006C4.62827 26.8548 5.84538 29.6319 8.39986 30.9443L8.7494 31.124L9.11972 30.9921C11.1392 30.2729 13 29.1187 14.6506 27.5616C15.7176 26.5551 16.6345 25.4414 17.3884 24.2514C17.6146 24.2855 17.8459 24.3035 18.0814 24.3035C20.6334 24.3035 22.7095 22.2274 22.7095 19.6753C22.7095 18.3029 22.1084 17.0687 21.1563 16.2204L24.0649 10.3388L27.003 16.3324C26.1214 17.1757 25.5706 18.362 25.5706 19.6753C25.5706 22.2274 27.6466 24.3035 30.1986 24.3035C31.1791 24.3035 32.0886 23.9962 32.8377 23.4741C33.3579 24.5388 33.5517 25.7368 33.3445 26.9302Z" fill="white"/>
</g>
<defs>
<clipPath id="clip0_587_241">
<rect width="36.1837" height="40" fill="white"/>
</clipPath>
</defs>
</svg>
