<svg width="40" height="40" viewBox="0 0 40 40" fill="none" xmlns="http://www.w3.org/2000/svg">
<g clip-path="url(#clip0_587_222)">
<path d="M40 0H0V40H40V0Z" fill="#F7DF1E"/>
<path d="M26.87 31.2501C27.6757 32.5657 28.724 33.5327 30.5779 33.5327C32.1354 33.5327 33.1303 32.7543 33.1303 31.6787C33.1303 30.3898 32.1081 29.9333 30.3938 29.1835L29.4541 28.7803C26.7418 27.6247 24.9398 26.1771 24.9398 23.1168C24.9398 20.2978 27.0878 18.1517 30.4446 18.1517C32.8344 18.1517 34.5525 18.9835 35.7906 21.1613L32.8637 23.0406C32.2192 21.8851 31.524 21.4298 30.4446 21.4298C29.3437 21.4298 28.6459 22.1282 28.6459 23.0406C28.6459 24.1682 29.3443 24.6247 30.957 25.3232L31.8967 25.7257C35.0903 27.0952 36.8935 28.4914 36.8935 31.6305C36.8935 35.0146 34.2351 36.8686 30.6649 36.8686C27.1741 36.8686 24.9189 35.2051 23.8154 33.0247L26.87 31.2501ZM13.5919 31.5759C14.1824 32.6235 14.7195 33.5092 16.011 33.5092C17.2459 33.5092 18.0249 33.026 18.0249 31.1473V18.3663H21.7837V31.1981C21.7837 35.0901 19.5018 36.8616 16.171 36.8616C13.1614 36.8616 11.4186 35.3041 10.5322 33.4282L13.5919 31.5759Z" fill="black"/>
</g>
<defs>
<clipPath id="clip0_587_222">
<rect width="40" height="40" fill="white"/>
</clipPath>
</defs>
</svg>
