<svg width="40" height="40" viewBox="0 0 40 40" fill="none" xmlns="http://www.w3.org/2000/svg">
<path d="M33.4713 15.3761C33.4089 14.0024 33.5962 12.7849 32.9718 11.7546C31.4732 9.19459 27.7269 7.69604 20.2341 7.69604C12.7414 7.69604 8.8077 9.19459 7.30915 11.7858C6.71598 12.8473 6.77842 14.0337 6.68476 15.4073C6.62232 16.5 6.1228 17.6551 6.34134 18.9039C6.5911 20.5274 6.68476 22.1508 6.93451 23.6493C7.12183 24.8669 8.8077 25.8972 8.9638 27.0523C9.40087 30.2367 12.7102 31.704 20.2029 31.704V31.9538H20.0468H20.2341V31.704C27.7269 31.704 30.9113 30.2367 31.3171 27.0523C31.4732 25.8659 33.0342 24.8669 33.2215 23.6493C33.4713 22.1508 33.565 20.5274 33.8147 18.9039C34.0333 17.6551 33.5337 16.4688 33.4713 15.3761Z" fill="#EFCCA3"/>
<path d="M20.1093 16.5C21.4518 16.5312 22.3884 17.3742 23.2625 18.1546C24.2928 19.06 26.0411 19.6844 26.7591 20.4649C27.4772 21.2454 28.4138 22.0259 28.7572 23.2435C29.1006 24.461 29.1943 26.022 29.1943 26.4279C29.1943 26.8337 29.4128 26.7401 30.0372 26.4279C31.5045 25.7098 33.128 23.7742 33.128 23.7742C32.9406 24.9918 31.3484 26.0845 31.1923 27.2396C30.8177 30.424 27.7269 31.9538 20.0781 31.9538H20.0469H20.2342" fill="#CCAC8D"/>
<path d="M25.0421 14.0648C25.3231 15.0326 26.3221 18.3107 24.3865 17.218C24.3865 17.218 25.1982 17.6863 25.6977 19.4658C26.2284 21.2454 27.5084 21.4639 27.5084 21.4639C27.5084 21.4639 29.6002 21.8698 31.1612 20.5273C32.4724 19.4034 32.6909 17.4053 32.129 15.8756C31.567 14.377 30.568 13.9087 29.1007 13.5965C27.6333 13.2531 24.6987 12.9721 25.0421 14.0648Z" fill="#CCAC8D"/>
<path d="M28.7571 20.3713C30.2744 20.3713 31.5044 19.1412 31.5044 17.6239C31.5044 16.1066 30.2744 14.8766 28.7571 14.8766C27.2398 14.8766 26.0098 16.1066 26.0098 17.6239C26.0098 19.1412 27.2398 20.3713 28.7571 20.3713Z" fill="black"/>
<path d="M28.0391 17.1245C28.4357 17.1245 28.7572 16.803 28.7572 16.4064C28.7572 16.0098 28.4357 15.6884 28.0391 15.6884C27.6425 15.6884 27.321 16.0098 27.321 16.4064C27.321 16.803 27.6425 17.1245 28.0391 17.1245Z" fill="white"/>
<path d="M24.5737 17.499C24.5737 17.499 27.04 19.1849 28.3825 20.8395C29.7249 22.4942 29.6937 22.8064 29.6937 22.8064L28.7259 23.2435C28.7259 23.2435 27.3522 20.6522 25.6664 19.6844C23.9493 18.7166 23.762 17.9049 23.762 17.9049L24.5737 17.499Z" fill="#EFCCA3"/>
<path d="M20.203 16.5C18.8605 16.5312 17.8615 17.3742 16.9561 18.1546C15.9259 19.06 14.1151 19.6844 13.3971 20.4649C12.679 21.2454 11.7112 22.0259 11.3678 23.2435C11.0244 24.461 10.8995 26.022 10.8995 26.4279C10.8995 26.8337 10.9619 26.865 10.0566 26.4279C8.58925 25.741 6.96582 23.7742 6.96582 23.7742C7.15314 24.9918 8.74535 26.0845 8.90145 27.2396C9.33852 30.424 12.4293 31.9538 20.0781 31.9538H20.2342" fill="#CCAC8D"/>
<path d="M27.4459 21.7761C25.9474 19.9341 23.5434 18.217 20.2029 18.217H20.1717C16.8312 18.217 14.4273 19.9341 12.9287 21.7761C11.3677 23.6805 11.4926 24.4298 11.4926 26.2405C11.4926 32.7967 13.8029 30.9235 15.3326 31.7352C16.8936 32.5157 18.5171 32.2659 20.1717 32.2659H20.2029C21.8888 32.2659 23.481 32.4845 25.042 31.704C26.5718 30.9235 28.882 32.8591 28.882 26.303C28.9132 24.4922 29.0069 23.6805 27.4459 21.7761Z" fill="#56332B"/>
<path d="M20.0467 19.8406C20.0467 19.8406 19.8282 22.8689 19.3911 23.4621L20.2028 23.2747L20.0467 19.8406Z" fill="#442823"/>
<path d="M20.2652 19.8406C20.2652 19.8406 20.4838 22.8689 20.9208 23.4621L20.1091 23.2747L20.2652 19.8406Z" fill="#442823"/>
<path d="M17.643 19.1224C17.3308 18.4044 18.4547 17.2492 20.2343 17.218C22.0138 17.218 23.1377 18.3731 22.8255 19.1224C22.5133 19.8717 21.3894 20.0902 20.2343 20.1215C19.1103 20.0902 17.9552 19.8717 17.643 19.1224Z" fill="#56332B"/>
<path d="M20.2342 19.8405C20.2342 19.7156 21.2957 19.6844 21.8577 19.3098C21.8577 19.3098 20.7025 19.6844 20.4528 19.5283C20.203 19.4034 20.1406 19.0288 20.1406 19.0288C20.1406 19.0288 20.0469 19.4034 19.8596 19.5283C19.6411 19.6532 18.3298 19.3098 18.3298 19.3098L20.0781 19.8405C20.0781 19.9342 20.0469 20.2464 20.0469 20.4649L20.1718 23.3371C20.3591 23.6181 20.2967 21.2454 20.2967 20.4649L20.2342 19.8405Z" fill="black"/>
<path d="M20.2966 24.024C20.8273 24.024 21.7639 24.3986 22.6068 24.9918C21.7951 24.0864 20.8273 23.462 20.2966 23.462C19.7346 23.462 18.5483 24.1489 17.7053 25.1479C18.5795 24.4611 19.7034 24.024 20.2966 24.024Z" fill="#7F4A41" stroke="#4D4D4D" stroke-width="2.07749" stroke-miterlimit="10"/>
<path d="M20.0781 29.5498C18.8918 29.5498 17.7366 29.1752 16.6752 28.8942C16.4566 28.8318 16.2381 28.9879 16.0195 28.9254C14.0527 28.301 12.4605 27.2395 11.4927 25.8971V26.2093C11.4927 32.7654 13.8029 30.9235 15.3327 31.704C16.8937 32.4845 18.5171 32.2347 20.1718 32.2347H20.203C21.8889 32.2347 23.4811 32.4532 25.042 31.6728C26.5718 30.8923 28.8821 32.7967 28.8821 26.2405C28.8821 25.9908 28.8821 25.741 28.9133 25.5225C28.0079 26.9898 26.3533 28.1449 24.2928 28.8318C24.1055 28.8942 23.6684 28.7381 23.4811 28.7693C22.3571 29.144 21.3581 29.5498 20.0781 29.5498Z" fill="#442823"/>
<path d="M17.1123 26.022C17.1123 26.022 16.3318 28.3635 16.8626 29.3937L16.1445 29.0815C16.1445 29.0815 16.6753 26.7088 17.1123 26.022ZM23.2939 26.022C23.2939 26.022 24.0743 28.3635 23.5436 29.3937L24.2617 29.0815C24.2617 29.0815 23.6997 26.7088 23.2939 26.022Z" fill="#442823"/>
<path d="M15.1142 14.0648C14.8332 15.0326 13.8342 18.3107 15.7698 17.218C15.7698 17.218 14.9581 17.6863 14.4586 19.4658C13.9591 21.2454 12.6479 21.4639 12.6479 21.4639C12.6479 21.4639 10.5561 21.8698 8.99514 20.5273C7.68391 19.4034 7.46537 17.4053 8.02733 15.8756C8.58928 14.3458 9.58832 13.9087 11.0556 13.5965C12.523 13.2531 15.4264 12.9721 15.1142 14.0648Z" fill="#CCAC8D"/>
<path d="M20.2029 23.462C21.0458 23.462 23.6683 25.2728 23.6995 27.4894V27.3645C23.6995 25.0542 21.5766 23.2123 20.2029 23.2123C18.8292 23.2123 16.7063 25.0855 16.7063 27.3645V27.4894C16.7375 25.2728 19.36 23.462 20.2029 23.462Z" fill="black"/>
<path d="M20.8844 19.1395C21.018 19.105 21.0739 18.8741 21.0093 18.6236C20.9447 18.3732 20.7841 18.1981 20.6505 18.2326C20.517 18.267 20.461 18.4979 20.5256 18.7484C20.5902 18.9988 20.7508 19.1739 20.8844 19.1395Z" fill="#331712"/>
<path d="M19.2799 19.1348C19.4116 19.1757 19.5805 19.0086 19.6572 18.7615C19.7338 18.5145 19.6891 18.2811 19.5574 18.2403C19.4256 18.1994 19.2567 18.3665 19.1801 18.6135C19.1035 18.8605 19.1481 19.0939 19.2799 19.1348Z" fill="#331712"/>
<path d="M11.555 20.3713C13.0723 20.3713 14.3023 19.1412 14.3023 17.6239C14.3023 16.1066 13.0723 14.8766 11.555 14.8766C10.0376 14.8766 8.80762 16.1066 8.80762 17.6239C8.80762 19.1412 10.0376 20.3713 11.555 20.3713Z" fill="black"/>
<path d="M12.273 17.1245C12.6696 17.1245 12.991 16.803 12.991 16.4064C12.991 16.0098 12.6696 15.6884 12.273 15.6884C11.8764 15.6884 11.5549 16.0098 11.5549 16.4064C11.5549 16.803 11.8764 17.1245 12.273 17.1245Z" fill="white"/>
<path d="M21.0146 17.6552C21.0146 17.624 20.2965 17.9674 20.1092 17.9986C19.9219 17.9674 19.2039 17.624 19.2039 17.6552H21.0146Z" fill="#7F4A41" stroke="#4D4D4D" stroke-width="2.07749" stroke-miterlimit="10"/>
<path d="M15.5513 17.499C15.5513 17.499 13.0849 19.1849 11.7424 20.8395C10.4 22.4942 10.4312 22.8064 10.4312 22.8064L11.399 23.2435C11.399 23.2435 12.7727 20.6522 14.4586 19.6844C16.1444 18.7166 16.363 17.9049 16.363 17.9049L15.5513 17.499Z" fill="#EFCCA3"/>
<path d="M10.1502 12.5039C10.1502 12.5039 9.30727 14.8142 7.43408 15.782C7.43408 15.782 10.3687 15.4386 10.1502 12.5039ZM29.8499 12.5039C29.8499 12.5039 30.6928 14.8142 32.566 15.782C32.566 15.782 29.6313 15.4386 29.8499 12.5039ZM24.5113 16.8123C24.5113 16.8123 22.6693 14.8766 20.203 14.8142C20.1717 14.8142 20.2654 14.8142 20.2342 14.8142C20.203 14.8142 20.2654 14.8142 20.2654 14.8142C17.7678 14.8766 15.9571 16.8123 15.9571 16.8123C18.1112 15.3137 19.9532 15.3449 20.2654 15.3449C20.2342 15.3449 22.3571 15.3137 24.5113 16.8123ZM22.3571 12.7537C22.3571 12.7537 21.4205 11.4425 20.1717 11.4113H20.2342C19.2976 11.4425 18.08 12.7537 18.08 12.7537C19.1415 11.7235 20.2342 11.7547 20.2342 11.7547C20.2342 11.7547 21.2644 11.7235 22.3571 12.7537ZM11.5551 22.3382C11.5551 22.3382 10.0878 23.0562 9.02629 22.6191H8.99507C8.05848 22.0884 7.59018 20.4962 7.59018 20.4962C7.59018 20.4962 8.52677 23.306 11.5551 22.3382ZM28.6635 22.3382C28.6635 22.3382 30.1308 23.0562 31.1923 22.6191C32.4411 22.0884 32.6284 20.4962 32.6284 20.4962C32.6284 20.4962 31.6918 23.306 28.6635 22.3382ZM13.241 12.3478C14.0527 12.1917 15.3951 12.1605 16.4566 12.5039C17.799 12.9722 16.7063 14.6893 16.9873 14.783C17.2683 14.8766 17.6429 13.5966 20.1405 13.7215C22.6693 13.8464 22.9503 14.9703 23.2937 14.783C23.6371 14.5957 22.9503 11.661 26.7279 12.3478C26.7279 12.3478 22.763 11.2864 22.9503 14.1586C22.9503 14.1586 20.6713 12.4103 17.4868 13.9713C17.5181 13.9713 18.3298 11.2864 13.241 12.3478ZM27.0713 12.3478C27.1337 12.3478 27.165 12.3791 27.1962 12.3791C27.2274 12.3791 27.165 12.3478 27.0713 12.3478Z" fill="#CCAC8D"/>
<path d="M12.1483 8.50781C12.1483 8.50781 8.77652 12.7537 8.277 14.3771C7.77749 16.0318 7.40285 22.8065 6.96577 23.7743L5.40479 17.0932L8.277 10.1312L12.1483 8.50781ZM28.0079 8.50781C28.0079 8.50781 31.3796 12.7537 31.8791 14.3771C32.3786 16.0318 32.7533 22.8065 33.1904 23.7743L34.7513 17.0932L31.8791 10.1312L28.0079 8.50781Z" fill="#CCAC8D"/>
<path d="M27.8517 8.50772C27.8517 8.50772 31.4732 11.536 32.5346 15.0326C33.5961 18.5293 33.159 22.7751 33.9708 23.3059C35.1259 24.0552 36.4371 19.5907 36.8742 19.1224C37.561 18.3732 39.8401 16.4688 39.9962 16.1253C40.1523 15.7819 35.3756 10.5682 33.2839 9.53797C30.7551 8.35162 27.6331 8.25796 27.8517 8.50772Z" fill="#56332B"/>
<path d="M30.9426 10.381C30.9426 10.381 35.2197 15.8444 35.1573 22.6503L36.8744 19.1537C36.8432 19.1537 35.3446 14.6893 30.9426 10.381Z" fill="#442823"/>
<path d="M12.1482 8.50772C12.1482 8.50772 8.52673 11.536 7.46526 15.0326C6.40378 18.5293 6.84086 22.7751 6.02915 23.3059C4.87402 24.0552 3.56279 19.5907 3.12571 19.1224C2.43888 18.3732 0.159834 16.4688 0.00373562 16.1253C-0.152363 15.7819 4.62426 10.5682 6.71598 9.53797C9.24478 8.35162 12.3668 8.25796 12.1482 8.50772Z" fill="#56332B"/>
<path d="M9.05752 10.381C9.05752 10.381 4.78041 15.8444 4.84285 22.6503L3.15698 19.1537C3.15698 19.1537 4.65553 14.6893 9.05752 10.381Z" fill="#442823"/>
<path d="M6.74731 22.7752C6.74731 22.7752 7.05951 24.461 7.55903 24.9918C8.05854 25.5225 7.71513 24.5859 7.71513 24.5859C7.71513 24.5859 7.18439 24.3049 7.27805 22.1508C7.37171 19.9966 6.74731 22.7752 6.74731 22.7752ZM33.3778 22.7752C33.3778 22.7752 33.0656 24.461 32.566 24.9918C32.0665 25.5225 32.4099 24.5859 32.4099 24.5859C32.4099 24.5859 32.9407 24.3049 32.847 22.1508C32.7534 19.9966 33.3778 22.7752 33.3778 22.7752Z" fill="#CCAC8D"/>
<path d="M16.9561 21.7449C17.094 21.7449 17.2058 21.6331 17.2058 21.4951C17.2058 21.3572 17.094 21.2454 16.9561 21.2454C16.8181 21.2454 16.7063 21.3572 16.7063 21.4951C16.7063 21.6331 16.8181 21.7449 16.9561 21.7449Z" fill="#442823"/>
<path d="M15.52 23.2434C15.658 23.2434 15.7698 23.1316 15.7698 22.9937C15.7698 22.8557 15.658 22.7439 15.52 22.7439C15.3821 22.7439 15.2703 22.8557 15.2703 22.9937C15.2703 23.1316 15.3821 23.2434 15.52 23.2434Z" fill="#442823"/>
<path d="M15.0518 21.7449C15.1897 21.7449 15.3015 21.6331 15.3015 21.4951C15.3015 21.3572 15.1897 21.2454 15.0518 21.2454C14.9138 21.2454 14.802 21.3572 14.802 21.4951C14.802 21.6331 14.9138 21.7449 15.0518 21.7449Z" fill="#442823"/>
<path d="M23.0439 21.7449C23.1819 21.7449 23.2937 21.6331 23.2937 21.4951C23.2937 21.3572 23.1819 21.2454 23.0439 21.2454C22.906 21.2454 22.7942 21.3572 22.7942 21.4951C22.7942 21.6331 22.906 21.7449 23.0439 21.7449Z" fill="#442823"/>
<path d="M24.4802 23.2434C24.6182 23.2434 24.73 23.1316 24.73 22.9937C24.73 22.8557 24.6182 22.7439 24.4802 22.7439C24.3423 22.7439 24.2305 22.8557 24.2305 22.9937C24.2305 23.1316 24.3423 23.2434 24.4802 23.2434Z" fill="#442823"/>
<path d="M24.9485 21.7449C25.0864 21.7449 25.1982 21.6331 25.1982 21.4951C25.1982 21.3572 25.0864 21.2454 24.9485 21.2454C24.8105 21.2454 24.6987 21.3572 24.6987 21.4951C24.6987 21.6331 24.8105 21.7449 24.9485 21.7449Z" fill="#442823"/>
</svg>
