<svg width="40" height="40" viewBox="0 0 40 40" fill="none" xmlns="http://www.w3.org/2000/svg">
<path fill-rule="evenodd" clip-rule="evenodd" d="M40 20C40 31.0457 31.0457 40 20 40C8.95431 40 0 31.0457 0 20C0 8.95431 8.95431 0 20 0C31.0457 0 40 8.95431 40 20ZM20.6994 14.7544C18.751 15.5704 14.8709 17.2523 9.0424 19.7836C8.10984 20.1666 7.61026 20.5329 7.5603 20.8993C7.48655 21.5188 8.26195 21.7594 9.30796 22.084C9.44293 22.1259 9.58242 22.1692 9.72516 22.2149C10.7576 22.5479 12.1232 22.9309 12.8392 22.9476C13.4887 22.9642 14.2048 22.6978 15.0041 22.1483C20.4496 18.468 23.2472 16.6029 23.4304 16.5696C23.5636 16.5363 23.7302 16.503 23.8467 16.6029C23.9633 16.7028 23.9633 16.9026 23.9466 16.9526C23.8672 17.2836 20.6185 20.2995 19.1402 21.672C18.7593 22.0255 18.496 22.27 18.4346 22.3314C18.2784 22.4922 18.1194 22.6444 17.9664 22.7908C17.0106 23.7057 16.2932 24.3923 18.0016 25.5121C18.7782 26.0249 19.4047 26.4522 20.0215 26.8731C20.7671 27.3817 21.4986 27.8809 22.4645 28.5096C22.6921 28.6591 22.91 28.8141 23.1225 28.9653C23.9521 29.5554 24.7006 30.0879 25.6286 30.0084C26.1615 29.9584 26.711 29.4588 26.9941 27.9601C27.6602 24.4297 28.9591 16.7528 29.2589 13.5887C29.2922 13.3223 29.2589 12.9726 29.2256 12.806C29.1923 12.6395 29.1423 12.423 28.9425 12.2565C28.6927 12.0567 28.3263 12.0234 28.1598 12.0234C27.4104 12.04 26.2447 12.4397 20.6994 14.7544Z" fill="#B5B2C6"/>
</svg>
